<svg width="276" height="35" viewBox="0 0 276 35" fill="none" xmlns="http://www.w3.org/2000/svg">
<path d="M7.14355 22.8984L11.416 8.50879H14.0479L13.3301 12.8154L9.02344 27H6.66504L7.14355 22.8984ZM4.63135 8.50879L7.96387 22.9668L8.2373 27H5.60547L0.598145 8.50879H4.63135ZM18.0469 22.7959L21.2769 8.50879H25.293L20.3027 27H17.6709L18.0469 22.7959ZM14.4922 8.50879L18.7134 22.7275L19.2432 27H16.8848L12.5269 12.7983L11.8091 8.50879H14.4922ZM35.8976 27.3418C34.5304 27.3418 33.2942 27.1196 32.1891 26.6753C31.0953 26.2196 30.1611 25.5872 29.3863 24.7783C28.623 23.9694 28.0362 23.0181 27.6261 21.9243C27.2159 20.8306 27.0108 19.6514 27.0108 18.3867V17.7031C27.0108 16.2562 27.2216 14.946 27.6432 13.7725C28.0647 12.599 28.6515 11.5964 29.4034 10.7646C30.1554 9.92155 31.044 9.27783 32.0694 8.8335C33.0948 8.38916 34.2057 8.16699 35.402 8.16699C36.7236 8.16699 37.88 8.38916 38.8712 8.8335C39.8624 9.27783 40.6827 9.90446 41.3321 10.7134C41.9929 11.5109 42.4828 12.4622 42.8019 13.5674C43.1323 14.6725 43.2975 15.8916 43.2975 17.2246V18.9849H29.0104V16.0283H39.2301V15.7036C39.2073 14.9631 39.0592 14.2681 38.7857 13.6187C38.5237 12.9692 38.1192 12.4451 37.5724 12.0464C37.0255 11.6476 36.2963 11.4482 35.3849 11.4482C34.7013 11.4482 34.0917 11.5964 33.5562 11.8926C33.0322 12.1774 32.5935 12.5933 32.2403 13.1401C31.8871 13.687 31.6137 14.3478 31.42 15.1226C31.2377 15.8859 31.1466 16.7461 31.1466 17.7031V18.3867C31.1466 19.1956 31.2548 19.9476 31.4713 20.6426C31.6992 21.3262 32.0296 21.9243 32.4625 22.437C32.8954 22.9497 33.4195 23.3542 34.0348 23.6504C34.65 23.9352 35.3507 24.0776 36.1368 24.0776C37.128 24.0776 38.011 23.8783 38.7857 23.4795C39.5605 23.0807 40.2327 22.5168 40.8023 21.7876L42.9728 23.8896C42.574 24.4707 42.0556 25.029 41.4176 25.5645C40.7796 26.0885 39.9991 26.5158 39.0763 26.8462C38.1648 27.1766 37.1052 27.3418 35.8976 27.3418ZM46.1774 0.75H50.2961V23.0522L49.903 27H46.1774V0.75ZM62.3615 17.5835V17.9424C62.3615 19.3096 62.2077 20.5685 61.9001 21.7192C61.6039 22.8586 61.1481 23.8498 60.5329 24.6929C59.9291 25.536 59.1771 26.1911 58.2771 26.6582C57.3884 27.1139 56.3573 27.3418 55.1838 27.3418C54.0331 27.3418 53.0305 27.1253 52.176 26.6924C51.3215 26.2594 50.6037 25.6442 50.0227 24.8467C49.453 24.0492 48.9916 23.0978 48.6384 21.9927C48.2852 20.8875 48.0345 19.6685 47.8864 18.3354V17.1904C48.0345 15.846 48.2852 14.627 48.6384 13.5332C48.9916 12.4281 49.453 11.4767 50.0227 10.6792C50.6037 9.87028 51.3158 9.24935 52.1589 8.81641C53.0134 8.38346 54.0103 8.16699 55.1496 8.16699C56.3345 8.16699 57.377 8.39486 58.2771 8.85059C59.1885 9.30632 59.9462 9.95573 60.55 10.7988C61.1538 11.6305 61.6039 12.6217 61.9001 13.7725C62.2077 14.9232 62.3615 16.1935 62.3615 17.5835ZM58.2429 17.9424V17.5835C58.2429 16.7518 58.1745 15.9714 58.0378 15.2422C57.9011 14.5016 57.6732 13.8522 57.3542 13.2939C57.0466 12.7357 56.625 12.297 56.0896 11.978C55.5655 11.6476 54.9104 11.4824 54.1242 11.4824C53.3951 11.4824 52.7684 11.6077 52.2443 11.8584C51.7202 12.109 51.2816 12.4508 50.9284 12.8838C50.5752 13.3167 50.2961 13.818 50.091 14.3877C49.8973 14.9574 49.7663 15.5726 49.6979 16.2334V19.3267C49.8005 20.1812 50.017 20.9673 50.3474 21.6851C50.6892 22.3914 51.1677 22.9611 51.7829 23.394C52.3981 23.8156 53.19 24.0264 54.1584 24.0264C54.9217 24.0264 55.5655 23.8726 56.0896 23.5649C56.6136 23.2573 57.0295 22.8301 57.3371 22.2832C57.6561 21.7249 57.884 21.0755 58.0207 20.335C58.1688 19.5944 58.2429 18.7969 58.2429 17.9424ZM75.8714 21.9927C75.8714 21.5825 75.7688 21.2122 75.5638 20.8818C75.3587 20.54 74.9656 20.2324 74.3846 19.959C73.8149 19.6855 72.9718 19.4349 71.8553 19.207C70.8755 18.9906 69.9754 18.7342 69.1551 18.438C68.3462 18.1304 67.6512 17.7601 67.0701 17.3271C66.4891 16.8942 66.039 16.3815 65.72 15.7891C65.401 15.1966 65.2415 14.513 65.2415 13.7383C65.2415 12.9863 65.4067 12.2743 65.7371 11.6021C66.0675 10.9299 66.5403 10.3374 67.1556 9.82471C67.7708 9.31201 68.5171 8.90755 69.3943 8.61133C70.283 8.3151 71.2742 8.16699 72.368 8.16699C73.9174 8.16699 75.2448 8.42904 76.3499 8.95312C77.4664 9.46582 78.3209 10.1665 78.9134 11.0552C79.5058 11.9325 79.8021 12.9237 79.8021 14.0288H75.6834C75.6834 13.5389 75.5581 13.0832 75.3074 12.6616C75.0682 12.2287 74.7036 11.8812 74.2137 11.6191C73.7238 11.3457 73.1085 11.209 72.368 11.209C71.6616 11.209 71.0748 11.3229 70.6077 11.5508C70.152 11.7673 69.8102 12.0521 69.5823 12.4053C69.3659 12.7585 69.2576 13.1458 69.2576 13.5674C69.2576 13.875 69.3146 14.1541 69.4285 14.4048C69.5538 14.644 69.7589 14.8662 70.0438 15.0713C70.3286 15.265 70.716 15.4473 71.2059 15.6182C71.7072 15.7891 72.3338 15.9543 73.0857 16.1138C74.4985 16.41 75.7119 16.7917 76.7259 17.2588C77.7513 17.7145 78.5374 18.307 79.0843 19.0361C79.6312 19.7539 79.9046 20.6654 79.9046 21.7705C79.9046 22.5908 79.728 23.3428 79.3748 24.0264C79.033 24.6986 78.5317 25.2853 77.8709 25.7866C77.2101 26.2765 76.4183 26.6582 75.4954 26.9316C74.584 27.2051 73.5586 27.3418 72.4192 27.3418C70.7444 27.3418 69.326 27.0456 68.1639 26.4531C67.0018 25.8493 66.1188 25.0802 65.5149 24.146C64.9225 23.2004 64.6263 22.2205 64.6263 21.2065H68.6082C68.6538 21.9699 68.8646 22.5794 69.2405 23.0352C69.6279 23.4795 70.1064 23.8042 70.6761 24.0093C71.2571 24.203 71.8553 24.2998 72.4705 24.2998C73.2111 24.2998 73.832 24.203 74.3333 24.0093C74.8346 23.8042 75.2163 23.5308 75.4783 23.189C75.7404 22.8358 75.8714 22.437 75.8714 21.9927ZM87.5697 8.50879V27H83.434V8.50879H87.5697ZM83.1605 3.65527C83.1605 3.02865 83.3656 2.51025 83.7758 2.1001C84.1973 1.67855 84.7784 1.46777 85.5189 1.46777C86.2481 1.46777 86.8235 1.67855 87.245 2.1001C87.6666 2.51025 87.8773 3.02865 87.8773 3.65527C87.8773 4.27051 87.6666 4.7832 87.245 5.19336C86.8235 5.60352 86.2481 5.80859 85.5189 5.80859C84.7784 5.80859 84.1973 5.60352 83.7758 5.19336C83.3656 4.7832 83.1605 4.27051 83.1605 3.65527ZM100.208 8.50879V11.5166H89.7832V8.50879H100.208ZM92.791 3.97998H96.9097V21.8901C96.9097 22.4598 96.9894 22.8984 97.1489 23.2061C97.3198 23.5023 97.5534 23.7017 97.8496 23.8042C98.1458 23.9067 98.4933 23.958 98.8921 23.958C99.1769 23.958 99.4504 23.9409 99.7124 23.9067C99.9744 23.8726 100.185 23.8384 100.345 23.8042L100.362 26.9487C100.02 27.0513 99.6213 27.1424 99.1655 27.2222C98.7212 27.3019 98.2085 27.3418 97.6274 27.3418C96.6818 27.3418 95.8444 27.1766 95.1152 26.8462C94.3861 26.5044 93.8164 25.9518 93.4062 25.1885C92.9961 24.4251 92.791 23.4111 92.791 22.1465V3.97998ZM111.189 27.3418C109.821 27.3418 108.585 27.1196 107.48 26.6753C106.386 26.2196 105.452 25.5872 104.677 24.7783C103.914 23.9694 103.327 23.0181 102.917 21.9243C102.507 20.8306 102.302 19.6514 102.302 18.3867V17.7031C102.302 16.2562 102.513 14.946 102.934 13.7725C103.356 12.599 103.942 11.5964 104.694 10.7646C105.446 9.92155 106.335 9.27783 107.36 8.8335C108.386 8.38916 109.497 8.16699 110.693 8.16699C112.015 8.16699 113.171 8.38916 114.162 8.8335C115.153 9.27783 115.974 9.90446 116.623 10.7134C117.284 11.5109 117.774 12.4622 118.093 13.5674C118.423 14.6725 118.588 15.8916 118.588 17.2246V18.9849H104.301V16.0283H114.521V15.7036C114.498 14.9631 114.35 14.2681 114.077 13.6187C113.815 12.9692 113.41 12.4451 112.863 12.0464C112.317 11.6476 111.587 11.4482 110.676 11.4482C109.992 11.4482 109.383 11.5964 108.847 11.8926C108.323 12.1774 107.885 12.5933 107.531 13.1401C107.178 13.687 106.905 14.3478 106.711 15.1226C106.529 15.8859 106.438 16.7461 106.438 17.7031V18.3867C106.438 19.1956 106.546 19.9476 106.762 20.6426C106.99 21.3262 107.321 21.9243 107.754 22.437C108.186 22.9497 108.711 23.3542 109.326 23.6504C109.941 23.9352 110.642 24.0776 111.428 24.0776C112.419 24.0776 113.302 23.8783 114.077 23.4795C114.851 23.0807 115.524 22.5168 116.093 21.7876L118.264 23.8896C117.865 24.4707 117.347 25.029 116.709 25.5645C116.071 26.0885 115.29 26.5158 114.367 26.8462C113.456 27.1766 112.396 27.3418 111.189 27.3418ZM131.825 21.9927C131.825 21.5825 131.722 21.2122 131.517 20.8818C131.312 20.54 130.919 20.2324 130.338 19.959C129.768 19.6855 128.925 19.4349 127.809 19.207C126.829 18.9906 125.929 18.7342 125.109 18.438C124.3 18.1304 123.605 17.7601 123.024 17.3271C122.443 16.8942 121.993 16.3815 121.674 15.7891C121.355 15.1966 121.195 14.513 121.195 13.7383C121.195 12.9863 121.36 12.2743 121.691 11.6021C122.021 10.9299 122.494 10.3374 123.109 9.82471C123.724 9.31201 124.471 8.90755 125.348 8.61133C126.237 8.3151 127.228 8.16699 128.321 8.16699C129.871 8.16699 131.198 8.42904 132.303 8.95312C133.42 9.46582 134.274 10.1665 134.867 11.0552C135.459 11.9325 135.756 12.9237 135.756 14.0288H131.637C131.637 13.5389 131.512 13.0832 131.261 12.6616C131.022 12.2287 130.657 11.8812 130.167 11.6191C129.677 11.3457 129.062 11.209 128.321 11.209C127.615 11.209 127.028 11.3229 126.561 11.5508C126.106 11.7673 125.764 12.0521 125.536 12.4053C125.319 12.7585 125.211 13.1458 125.211 13.5674C125.211 13.875 125.268 14.1541 125.382 14.4048C125.507 14.644 125.712 14.8662 125.997 15.0713C126.282 15.265 126.669 15.4473 127.159 15.6182C127.661 15.7891 128.287 15.9543 129.039 16.1138C130.452 16.41 131.665 16.7917 132.679 17.2588C133.705 17.7145 134.491 18.307 135.038 19.0361C135.585 19.7539 135.858 20.6654 135.858 21.7705C135.858 22.5908 135.682 23.3428 135.328 24.0264C134.987 24.6986 134.485 25.2853 133.824 25.7866C133.164 26.2765 132.372 26.6582 131.449 26.9316C130.537 27.2051 129.512 27.3418 128.373 27.3418C126.698 27.3418 125.279 27.0456 124.117 26.4531C122.955 25.8493 122.072 25.0802 121.468 24.146C120.876 23.2004 120.58 22.2205 120.58 21.2065H124.562C124.607 21.9699 124.818 22.5794 125.194 23.0352C125.581 23.4795 126.06 23.8042 126.63 24.0093C127.211 24.203 127.809 24.2998 128.424 24.2998C129.165 24.2998 129.786 24.203 130.287 24.0093C130.788 23.8042 131.17 23.5308 131.432 23.189C131.694 22.8358 131.825 22.437 131.825 21.9927ZM139.131 0.75H143.25V23.0522L142.857 27H139.131V0.75ZM155.315 17.5835V17.9424C155.315 19.3096 155.161 20.5685 154.854 21.7192C154.558 22.8586 154.102 23.8498 153.487 24.6929C152.883 25.536 152.131 26.1911 151.231 26.6582C150.342 27.1139 149.311 27.3418 148.137 27.3418C146.987 27.3418 145.984 27.1253 145.13 26.6924C144.275 26.2594 143.557 25.6442 142.976 24.8467C142.407 24.0492 141.945 23.0978 141.592 21.9927C141.239 20.8875 140.988 19.6685 140.84 18.3354V17.1904C140.988 15.846 141.239 14.627 141.592 13.5332C141.945 12.4281 142.407 11.4767 142.976 10.6792C143.557 9.87028 144.269 9.24935 145.113 8.81641C145.967 8.38346 146.964 8.16699 148.103 8.16699C149.288 8.16699 150.331 8.39486 151.231 8.85059C152.142 9.30632 152.9 9.95573 153.504 10.7988C154.108 11.6305 154.558 12.6217 154.854 13.7725C155.161 14.9232 155.315 16.1935 155.315 17.5835ZM151.197 17.9424V17.5835C151.197 16.7518 151.128 15.9714 150.992 15.2422C150.855 14.5016 150.627 13.8522 150.308 13.2939C150 12.7357 149.579 12.297 149.043 11.978C148.519 11.6476 147.864 11.4824 147.078 11.4824C146.349 11.4824 145.722 11.6077 145.198 11.8584C144.674 12.109 144.235 12.4508 143.882 12.8838C143.529 13.3167 143.25 13.818 143.045 14.3877C142.851 14.9574 142.72 15.5726 142.652 16.2334V19.3267C142.754 20.1812 142.971 20.9673 143.301 21.6851C143.643 22.3914 144.121 22.9611 144.737 23.394C145.352 23.8156 146.144 24.0264 147.112 24.0264C147.875 24.0264 148.519 23.8726 149.043 23.5649C149.567 23.2573 149.983 22.8301 150.291 22.2832C150.61 21.7249 150.838 21.0755 150.974 20.335C151.123 19.5944 151.197 18.7969 151.197 17.9424ZM163.613 24.9834L168.637 8.50879H173.046L165.629 29.8198C165.458 30.2756 165.236 30.7712 164.963 31.3066C164.689 31.8421 164.33 32.3491 163.886 32.8276C163.453 33.3175 162.912 33.7106 162.263 34.0068C161.613 34.3145 160.827 34.4683 159.904 34.4683C159.54 34.4683 159.186 34.4341 158.845 34.3657C158.514 34.3088 158.201 34.2461 157.905 34.1777L157.888 31.0332C158.002 31.0446 158.138 31.056 158.298 31.0674C158.469 31.0788 158.605 31.0845 158.708 31.0845C159.392 31.0845 159.961 30.999 160.417 30.8281C160.873 30.6686 161.243 30.4066 161.528 30.042C161.824 29.6774 162.075 29.1875 162.28 28.5723L163.613 24.9834ZM160.776 8.50879L165.168 22.3516L165.903 26.6924L163.049 27.4272L156.332 8.50879H160.776Z" fill="#EEEEEE"/>
<path d="M179.173 12.2686V27H175.055V8.50879H178.934L179.173 12.2686ZM178.507 17.0708L177.105 17.0537C177.105 15.7777 177.265 14.5985 177.584 13.5161C177.903 12.4338 178.37 11.4938 178.985 10.6963C179.601 9.88737 180.364 9.26644 181.275 8.8335C182.198 8.38916 183.264 8.16699 184.471 8.16699C185.314 8.16699 186.083 8.29232 186.778 8.54297C187.485 8.78223 188.094 9.1639 188.607 9.68799C189.131 10.2121 189.53 10.8843 189.803 11.7046C190.088 12.5249 190.23 13.5161 190.23 14.6782V27H186.112V15.0371C186.112 14.137 185.975 13.4307 185.702 12.918C185.44 12.4053 185.058 12.0407 184.557 11.8242C184.067 11.5964 183.48 11.4824 182.796 11.4824C182.022 11.4824 181.361 11.6305 180.814 11.9268C180.278 12.223 179.84 12.6274 179.498 13.1401C179.156 13.6528 178.906 14.2453 178.746 14.9175C178.587 15.5897 178.507 16.3075 178.507 17.0708ZM189.974 15.9771L188.043 16.4043C188.043 15.2878 188.197 14.2339 188.504 13.2427C188.823 12.2401 189.285 11.3628 189.889 10.6108C190.504 9.84749 191.262 9.24935 192.162 8.81641C193.062 8.38346 194.093 8.16699 195.255 8.16699C196.201 8.16699 197.044 8.29801 197.784 8.56006C198.536 8.81071 199.174 9.20947 199.698 9.75635C200.222 10.3032 200.621 11.0153 200.895 11.8926C201.168 12.7585 201.305 13.8066 201.305 15.0371V27H197.169V15.02C197.169 14.0858 197.032 13.3623 196.759 12.8496C196.497 12.3369 196.121 11.9837 195.631 11.79C195.141 11.585 194.554 11.4824 193.871 11.4824C193.233 11.4824 192.669 11.6021 192.179 11.8413C191.7 12.0692 191.296 12.3939 190.965 12.8154C190.635 13.2256 190.384 13.6984 190.213 14.2339C190.054 14.7694 189.974 15.3504 189.974 15.9771ZM215.618 23.2915V14.4731C215.618 13.8123 215.498 13.2427 215.259 12.7642C215.02 12.2856 214.655 11.9154 214.165 11.6533C213.687 11.3913 213.083 11.2603 212.354 11.2603C211.681 11.2603 211.1 11.3742 210.61 11.6021C210.121 11.8299 209.739 12.1375 209.465 12.5249C209.192 12.9123 209.055 13.3509 209.055 13.8408H204.954C204.954 13.1117 205.13 12.4053 205.483 11.7217C205.837 11.0381 206.349 10.4285 207.022 9.89307C207.694 9.35758 208.497 8.93604 209.431 8.62842C210.365 8.3208 211.414 8.16699 212.576 8.16699C213.966 8.16699 215.196 8.40055 216.267 8.86768C217.35 9.3348 218.198 10.0412 218.814 10.9868C219.44 11.9211 219.754 13.0946 219.754 14.5073V22.7275C219.754 23.5706 219.81 24.3283 219.924 25.0005C220.05 25.6613 220.226 26.2367 220.454 26.7266V27H216.233C216.039 26.5557 215.886 25.9917 215.772 25.3081C215.669 24.6131 215.618 23.9409 215.618 23.2915ZM216.216 15.7549L216.25 18.3013H213.294C212.53 18.3013 211.858 18.3753 211.277 18.5234C210.696 18.6602 210.212 18.8652 209.824 19.1387C209.437 19.4121 209.146 19.7425 208.953 20.1299C208.759 20.5173 208.662 20.9559 208.662 21.4458C208.662 21.9357 208.776 22.3857 209.004 22.7959C209.232 23.1947 209.562 23.508 209.995 23.7358C210.44 23.9637 210.975 24.0776 211.602 24.0776C212.445 24.0776 213.18 23.9067 213.806 23.5649C214.444 23.2118 214.946 22.7845 215.31 22.2832C215.675 21.7705 215.868 21.2863 215.891 20.8306L217.224 22.6592C217.087 23.1263 216.854 23.6276 216.524 24.1631C216.193 24.6986 215.76 25.2113 215.225 25.7012C214.701 26.1797 214.068 26.5728 213.328 26.8804C212.599 27.188 211.755 27.3418 210.798 27.3418C209.591 27.3418 208.514 27.1025 207.568 26.624C206.623 26.1341 205.882 25.479 205.347 24.6587C204.811 23.827 204.544 22.887 204.544 21.8389C204.544 20.859 204.726 19.9932 205.09 19.2412C205.466 18.4779 206.013 17.8398 206.731 17.3271C207.46 16.8145 208.349 16.4271 209.397 16.165C210.445 15.8916 211.642 15.7549 212.986 15.7549H216.216ZM234.084 21.9927C234.084 21.5825 233.981 21.2122 233.776 20.8818C233.571 20.54 233.178 20.2324 232.597 19.959C232.027 19.6855 231.184 19.4349 230.068 19.207C229.088 18.9906 228.188 18.7342 227.367 18.438C226.558 18.1304 225.863 17.7601 225.282 17.3271C224.701 16.8942 224.251 16.3815 223.932 15.7891C223.613 15.1966 223.454 14.513 223.454 13.7383C223.454 12.9863 223.619 12.2743 223.949 11.6021C224.28 10.9299 224.753 10.3374 225.368 9.82471C225.983 9.31201 226.729 8.90755 227.607 8.61133C228.495 8.3151 229.487 8.16699 230.58 8.16699C232.13 8.16699 233.457 8.42904 234.562 8.95312C235.679 9.46582 236.533 10.1665 237.126 11.0552C237.718 11.9325 238.014 12.9237 238.014 14.0288H233.896C233.896 13.5389 233.77 13.0832 233.52 12.6616C233.28 12.2287 232.916 11.8812 232.426 11.6191C231.936 11.3457 231.321 11.209 230.58 11.209C229.874 11.209 229.287 11.3229 228.82 11.5508C228.364 11.7673 228.022 12.0521 227.795 12.4053C227.578 12.7585 227.47 13.1458 227.47 13.5674C227.47 13.875 227.527 14.1541 227.641 14.4048C227.766 14.644 227.971 14.8662 228.256 15.0713C228.541 15.265 228.928 15.4473 229.418 15.6182C229.919 15.7891 230.546 15.9543 231.298 16.1138C232.711 16.41 233.924 16.7917 234.938 17.2588C235.964 17.7145 236.75 18.307 237.297 19.0361C237.843 19.7539 238.117 20.6654 238.117 21.7705C238.117 22.5908 237.94 23.3428 237.587 24.0264C237.245 24.6986 236.744 25.2853 236.083 25.7866C235.422 26.2765 234.631 26.6582 233.708 26.9316C232.796 27.2051 231.771 27.3418 230.632 27.3418C228.957 27.3418 227.538 27.0456 226.376 26.4531C225.214 25.8493 224.331 25.0802 223.727 24.146C223.135 23.2004 222.839 22.2205 222.839 21.2065H226.821C226.866 21.9699 227.077 22.5794 227.453 23.0352C227.84 23.4795 228.319 23.8042 228.888 24.0093C229.469 24.203 230.068 24.2998 230.683 24.2998C231.423 24.2998 232.044 24.203 232.546 24.0093C233.047 23.8042 233.429 23.5308 233.691 23.189C233.953 22.8358 234.084 22.437 234.084 21.9927ZM252.498 22.6421V8.50879H256.634V27H252.738L252.498 22.6421ZM253.079 18.7969L254.464 18.7627C254.464 20.0046 254.327 21.1496 254.054 22.1978C253.78 23.2345 253.359 24.1403 252.789 24.915C252.219 25.6784 251.49 26.2765 250.601 26.7095C249.713 27.131 248.647 27.3418 247.406 27.3418C246.505 27.3418 245.679 27.2108 244.928 26.9487C244.176 26.6867 243.526 26.2822 242.979 25.7354C242.444 25.1885 242.028 24.4764 241.732 23.5991C241.436 22.7218 241.287 21.6737 241.287 20.4546V8.50879H245.406V20.4888C245.406 21.161 245.486 21.7249 245.645 22.1807C245.805 22.625 246.021 22.9839 246.295 23.2573C246.568 23.5308 246.887 23.7244 247.252 23.8384C247.616 23.9523 248.004 24.0093 248.414 24.0093C249.587 24.0093 250.51 23.7814 251.182 23.3257C251.866 22.8586 252.35 22.2319 252.635 21.4458C252.931 20.6597 253.079 19.7767 253.079 18.7969ZM271.785 23.1719V0.75H275.92V27H272.178L271.785 23.1719ZM259.753 17.9595V17.6006C259.753 16.1992 259.919 14.9232 260.249 13.7725C260.579 12.6104 261.058 11.6134 261.684 10.7817C262.311 9.93864 263.074 9.29492 263.975 8.85059C264.875 8.39486 265.889 8.16699 267.017 8.16699C268.133 8.16699 269.113 8.38346 269.956 8.81641C270.799 9.24935 271.517 9.87028 272.109 10.6792C272.702 11.4767 273.175 12.4338 273.528 13.5503C273.881 14.6554 274.132 15.8859 274.28 17.2417V18.3867C274.132 19.7083 273.881 20.916 273.528 22.0098C273.175 23.1035 272.702 24.0492 272.109 24.8467C271.517 25.6442 270.793 26.2594 269.939 26.6924C269.096 27.1253 268.11 27.3418 266.982 27.3418C265.866 27.3418 264.857 27.1082 263.957 26.6411C263.069 26.174 262.311 25.5189 261.684 24.6758C261.058 23.8327 260.579 22.8415 260.249 21.7021C259.919 20.5514 259.753 19.3039 259.753 17.9595ZM263.872 17.6006V17.9595C263.872 18.8026 263.946 19.5887 264.094 20.3179C264.254 21.047 264.499 21.6908 264.829 22.249C265.159 22.7959 265.587 23.2288 266.111 23.5479C266.646 23.8555 267.284 24.0093 268.025 24.0093C268.959 24.0093 269.728 23.8042 270.332 23.394C270.936 22.9839 271.409 22.4313 271.75 21.7363C272.104 21.0299 272.343 20.2438 272.468 19.3779V16.2847C272.4 15.6125 272.257 14.9858 272.041 14.4048C271.836 13.8237 271.557 13.3167 271.204 12.8838C270.85 12.4395 270.412 12.0977 269.888 11.8584C269.375 11.6077 268.765 11.4824 268.059 11.4824C267.307 11.4824 266.669 11.6419 266.145 11.9609C265.621 12.2799 265.188 12.7186 264.846 13.2769C264.516 13.8351 264.271 14.4845 264.111 15.2251C263.952 15.9657 263.872 16.7575 263.872 17.6006Z" fill="#08CB00"/>
</svg>
