<svg width="157" height="28" viewBox="0 0 157 28" fill="none" xmlns="http://www.w3.org/2000/svg">
<path d="M12.3984 23.1719V0.75H16.5342V27H12.7915L12.3984 23.1719ZM0.367188 17.9595V17.6006C0.367188 16.1992 0.532389 14.9232 0.862793 13.7725C1.1932 12.6104 1.67171 11.6134 2.29834 10.7817C2.92497 9.93864 3.68831 9.29492 4.58838 8.85059C5.48844 8.39486 6.50244 8.16699 7.63037 8.16699C8.74691 8.16699 9.72673 8.38346 10.5698 8.81641C11.4129 9.24935 12.1307 9.87028 12.7231 10.6792C13.3156 11.4767 13.7884 12.4338 14.1416 13.5503C14.4948 14.6554 14.7454 15.8859 14.8936 17.2417V18.3867C14.7454 19.7083 14.4948 20.916 14.1416 22.0098C13.7884 23.1035 13.3156 24.0492 12.7231 24.8467C12.1307 25.6442 11.4072 26.2594 10.5527 26.6924C9.70964 27.1253 8.72412 27.3418 7.59619 27.3418C6.47965 27.3418 5.47135 27.1082 4.57129 26.6411C3.68262 26.174 2.92497 25.5189 2.29834 24.6758C1.67171 23.8327 1.1932 22.8415 0.862793 21.7021C0.532389 20.5514 0.367188 19.3039 0.367188 17.9595ZM4.48584 17.6006V17.9595C4.48584 18.8026 4.5599 19.5887 4.70801 20.3179C4.86751 21.047 5.11247 21.6908 5.44287 22.249C5.77327 22.7959 6.20052 23.2288 6.72461 23.5479C7.26009 23.8555 7.89811 24.0093 8.63867 24.0093C9.57292 24.0093 10.342 23.8042 10.9458 23.394C11.5496 22.9839 12.0225 22.4313 12.3643 21.7363C12.7174 21.0299 12.9567 20.2438 13.082 19.3779V16.2847C13.0137 15.6125 12.8713 14.9858 12.6548 14.4048C12.4497 13.8237 12.1706 13.3167 11.8174 12.8838C11.4642 12.4395 11.0256 12.0977 10.5015 11.8584C9.98877 11.6077 9.37923 11.4824 8.67285 11.4824C7.9209 11.4824 7.28288 11.6419 6.75879 11.9609C6.2347 12.2799 5.80176 12.7186 5.45996 13.2769C5.12956 13.8351 4.8846 14.4845 4.7251 15.2251C4.56559 15.9657 4.48584 16.7575 4.48584 17.6006ZM28.6427 27.3418C27.2755 27.3418 26.0393 27.1196 24.9342 26.6753C23.8404 26.2196 22.9062 25.5872 22.1314 24.7783C21.3681 23.9694 20.7813 23.0181 20.3712 21.9243C19.961 20.8306 19.756 19.6514 19.756 18.3867V17.7031C19.756 16.2562 19.9667 14.946 20.3883 13.7725C20.8098 12.599 21.3966 11.5964 22.1485 10.7646C22.9005 9.92155 23.7892 9.27783 24.8146 8.8335C25.8399 8.38916 26.9508 8.16699 28.1471 8.16699C29.4687 8.16699 30.6251 8.38916 31.6163 8.8335C32.6075 9.27783 33.4278 9.90446 34.0772 10.7134C34.7381 11.5109 35.228 12.4622 35.547 13.5674C35.8774 14.6725 36.0426 15.8916 36.0426 17.2246V18.9849H21.7555V16.0283H31.9752V15.7036C31.9524 14.9631 31.8043 14.2681 31.5309 13.6187C31.2688 12.9692 30.8644 12.4451 30.3175 12.0464C29.7706 11.6476 29.0414 11.4482 28.13 11.4482C27.4464 11.4482 26.8368 11.5964 26.3014 11.8926C25.7773 12.1774 25.3386 12.5933 24.9854 13.1401C24.6323 13.687 24.3588 14.3478 24.1651 15.1226C23.9828 15.8859 23.8917 16.7461 23.8917 17.7031V18.3867C23.8917 19.1956 23.9999 19.9476 24.2164 20.6426C24.4443 21.3262 24.7747 21.9243 25.2076 22.437C25.6406 22.9497 26.1646 23.3542 26.7799 23.6504C27.3951 23.9352 28.0958 24.0776 28.8819 24.0776C29.8731 24.0776 30.7561 23.8783 31.5309 23.4795C32.3056 23.0807 32.9778 22.5168 33.5475 21.7876L35.7179 23.8896C35.3191 24.4707 34.8007 25.029 34.1627 25.5645C33.5247 26.0885 32.7442 26.5158 31.8214 26.8462C30.9099 27.1766 29.8504 27.3418 28.6427 27.3418ZM44.6818 23.7358L49.2106 8.50879H53.4831L47.0573 27H44.3913L44.6818 23.7358ZM41.2126 8.50879L45.8269 23.8042L46.049 27H43.383L36.923 8.50879H41.2126Z" fill="#EEEEEE"/>
<path d="M59.7981 12.2686V27H55.6795V8.50879H59.5589L59.7981 12.2686ZM59.1316 17.0708L57.7303 17.0537C57.7303 15.7777 57.8898 14.5985 58.2088 13.5161C58.5278 12.4338 58.9949 11.4938 59.6102 10.6963C60.2254 9.88737 60.9887 9.26644 61.9002 8.8335C62.823 8.38916 63.8883 8.16699 65.096 8.16699C65.9391 8.16699 66.7081 8.29232 67.4031 8.54297C68.1095 8.78223 68.719 9.1639 69.2317 9.68799C69.7558 10.2121 70.1546 10.8843 70.428 11.7046C70.7129 12.5249 70.8553 13.5161 70.8553 14.6782V27H66.7366V15.0371C66.7366 14.137 66.5999 13.4307 66.3265 12.918C66.0644 12.4053 65.6827 12.0407 65.1814 11.8242C64.6915 11.5964 64.1048 11.4824 63.4212 11.4824C62.6465 11.4824 61.9856 11.6305 61.4388 11.9268C60.9033 12.223 60.4646 12.6274 60.1229 13.1401C59.7811 13.6528 59.5304 14.2453 59.3709 14.9175C59.2114 15.5897 59.1316 16.3075 59.1316 17.0708ZM70.5989 15.9771L68.6678 16.4043C68.6678 15.2878 68.8216 14.2339 69.1292 13.2427C69.4482 12.2401 69.9096 11.3628 70.5135 10.6108C71.1287 9.84749 71.8864 9.24935 72.7864 8.81641C73.6865 8.38346 74.7176 8.16699 75.8797 8.16699C76.8253 8.16699 77.6684 8.29801 78.409 8.56006C79.1609 8.81071 79.799 9.20947 80.323 9.75635C80.8471 10.3032 81.2459 11.0153 81.5193 11.8926C81.7928 12.7585 81.9295 13.8066 81.9295 15.0371V27H77.7938V15.02C77.7938 14.0858 77.657 13.3623 77.3836 12.8496C77.1216 12.3369 76.7456 11.9837 76.2557 11.79C75.7658 11.585 75.179 11.4824 74.4954 11.4824C73.8574 11.4824 73.2934 11.6021 72.8035 11.8413C72.325 12.0692 71.9205 12.3939 71.5901 12.8154C71.2597 13.2256 71.0091 13.6984 70.8382 14.2339C70.6787 14.7694 70.5989 15.3504 70.5989 15.9771ZM96.2426 23.2915V14.4731C96.2426 13.8123 96.1229 13.2427 95.8837 12.7642C95.6444 12.2856 95.2798 11.9154 94.7899 11.6533C94.3114 11.3913 93.7076 11.2603 92.9784 11.2603C92.3062 11.2603 91.7252 11.3742 91.2353 11.6021C90.7453 11.8299 90.3637 12.1375 90.0902 12.5249C89.8168 12.9123 89.6801 13.3509 89.6801 13.8408H85.5785C85.5785 13.1117 85.7551 12.4053 86.1083 11.7217C86.4615 11.0381 86.9742 10.4285 87.6464 9.89307C88.3186 9.35758 89.1218 8.93604 90.0561 8.62842C90.9903 8.3208 92.0385 8.16699 93.2006 8.16699C94.5906 8.16699 95.821 8.40055 96.892 8.86768C97.9743 9.3348 98.8231 10.0412 99.4384 10.9868C100.065 11.9211 100.378 13.0946 100.378 14.5073V22.7275C100.378 23.5706 100.435 24.3283 100.549 25.0005C100.675 25.6613 100.851 26.2367 101.079 26.7266V27H96.8578C96.6641 26.5557 96.5103 25.9917 96.3964 25.3081C96.2938 24.6131 96.2426 23.9409 96.2426 23.2915ZM96.8407 15.7549L96.8749 18.3013H93.9184C93.155 18.3013 92.4828 18.3753 91.9018 18.5234C91.3207 18.6602 90.8365 18.8652 90.4491 19.1387C90.0617 19.4121 89.7712 19.7425 89.5775 20.1299C89.3839 20.5173 89.287 20.9559 89.287 21.4458C89.287 21.9357 89.4009 22.3857 89.6288 22.7959C89.8567 23.1947 90.1871 23.508 90.62 23.7358C91.0644 23.9637 91.5998 24.0776 92.2265 24.0776C93.0696 24.0776 93.8044 23.9067 94.4311 23.5649C95.0691 23.2118 95.5704 22.7845 95.935 22.2832C96.2995 21.7705 96.4932 21.2863 96.516 20.8306L97.849 22.6592C97.7123 23.1263 97.4787 23.6276 97.1483 24.1631C96.8179 24.6986 96.385 25.2113 95.8495 25.7012C95.3254 26.1797 94.6931 26.5728 93.9525 26.8804C93.2234 27.188 92.3803 27.3418 91.4232 27.3418C90.2156 27.3418 89.1389 27.1025 88.1933 26.624C87.2476 26.1341 86.5071 25.479 85.9716 24.6587C85.4361 23.827 85.1684 22.887 85.1684 21.8389C85.1684 20.859 85.3506 19.9932 85.7152 19.2412C86.0912 18.4779 86.6381 17.8398 87.3559 17.3271C88.085 16.8145 88.9737 16.4271 90.0219 16.165C91.0701 15.8916 92.2663 15.7549 93.6107 15.7549H96.8407ZM114.708 21.9927C114.708 21.5825 114.606 21.2122 114.401 20.8818C114.196 20.54 113.803 20.2324 113.222 19.959C112.652 19.6855 111.809 19.4349 110.692 19.207C109.713 18.9906 108.812 18.7342 107.992 18.438C107.183 18.1304 106.488 17.7601 105.907 17.3271C105.326 16.8942 104.876 16.3815 104.557 15.7891C104.238 15.1966 104.079 14.513 104.079 13.7383C104.079 12.9863 104.244 12.2743 104.574 11.6021C104.905 10.9299 105.377 10.3374 105.993 9.82471C106.608 9.31201 107.354 8.90755 108.231 8.61133C109.12 8.3151 110.111 8.16699 111.205 8.16699C112.755 8.16699 114.082 8.42904 115.187 8.95312C116.304 9.46582 117.158 10.1665 117.75 11.0552C118.343 11.9325 118.639 12.9237 118.639 14.0288H114.521C114.521 13.5389 114.395 13.0832 114.145 12.6616C113.905 12.2287 113.541 11.8812 113.051 11.6191C112.561 11.3457 111.946 11.209 111.205 11.209C110.499 11.209 109.912 11.3229 109.445 11.5508C108.989 11.7673 108.647 12.0521 108.419 12.4053C108.203 12.7585 108.095 13.1458 108.095 13.5674C108.095 13.875 108.152 14.1541 108.266 14.4048C108.391 14.644 108.596 14.8662 108.881 15.0713C109.166 15.265 109.553 15.4473 110.043 15.6182C110.544 15.7891 111.171 15.9543 111.923 16.1138C113.336 16.41 114.549 16.7917 115.563 17.2588C116.588 17.7145 117.375 18.307 117.921 19.0361C118.468 19.7539 118.742 20.6654 118.742 21.7705C118.742 22.5908 118.565 23.3428 118.212 24.0264C117.87 24.6986 117.369 25.2853 116.708 25.7866C116.047 26.2765 115.255 26.6582 114.333 26.9316C113.421 27.2051 112.396 27.3418 111.256 27.3418C109.582 27.3418 108.163 27.0456 107.001 26.4531C105.839 25.8493 104.956 25.0802 104.352 24.146C103.76 23.2004 103.463 22.2205 103.463 21.2065H107.445C107.491 21.9699 107.702 22.5794 108.078 23.0352C108.465 23.4795 108.944 23.8042 109.513 24.0093C110.094 24.203 110.692 24.2998 111.308 24.2998C112.048 24.2998 112.669 24.203 113.17 24.0093C113.672 23.8042 114.053 23.5308 114.315 23.189C114.577 22.8358 114.708 22.437 114.708 21.9927ZM133.123 22.6421V8.50879H137.259V27H133.362L133.123 22.6421ZM133.704 18.7969L135.088 18.7627C135.088 20.0046 134.952 21.1496 134.678 22.1978C134.405 23.2345 133.983 24.1403 133.414 24.915C132.844 25.6784 132.115 26.2765 131.226 26.7095C130.338 27.131 129.272 27.3418 128.03 27.3418C127.13 27.3418 126.304 27.2108 125.552 26.9487C124.8 26.6867 124.151 26.2822 123.604 25.7354C123.069 25.1885 122.653 24.4764 122.357 23.5991C122.06 22.7218 121.912 21.6737 121.912 20.4546V8.50879H126.031V20.4888C126.031 21.161 126.111 21.7249 126.27 22.1807C126.43 22.625 126.646 22.9839 126.92 23.2573C127.193 23.5308 127.512 23.7244 127.877 23.8384C128.241 23.9523 128.629 24.0093 129.039 24.0093C130.212 24.0093 131.135 23.7814 131.807 23.3257C132.491 22.8586 132.975 22.2319 133.26 21.4458C133.556 20.6597 133.704 19.7767 133.704 18.7969ZM152.409 23.1719V0.75H156.545V27H152.802L152.409 23.1719ZM140.378 17.9595V17.6006C140.378 16.1992 140.543 14.9232 140.874 13.7725C141.204 12.6104 141.683 11.6134 142.309 10.7817C142.936 9.93864 143.699 9.29492 144.599 8.85059C145.499 8.39486 146.513 8.16699 147.641 8.16699C148.758 8.16699 149.738 8.38346 150.581 8.81641C151.424 9.24935 152.142 9.87028 152.734 10.6792C153.327 11.4767 153.799 12.4338 154.153 13.5503C154.506 14.6554 154.756 15.8859 154.904 17.2417V18.3867C154.756 19.7083 154.506 20.916 154.153 22.0098C153.799 23.1035 153.327 24.0492 152.734 24.8467C152.142 25.6442 151.418 26.2594 150.564 26.6924C149.721 27.1253 148.735 27.3418 147.607 27.3418C146.491 27.3418 145.482 27.1082 144.582 26.6411C143.694 26.174 142.936 25.5189 142.309 24.6758C141.683 23.8327 141.204 22.8415 140.874 21.7021C140.543 20.5514 140.378 19.3039 140.378 17.9595ZM144.497 17.6006V17.9595C144.497 18.8026 144.571 19.5887 144.719 20.3179C144.878 21.047 145.123 21.6908 145.454 22.249C145.784 22.7959 146.211 23.2288 146.736 23.5479C147.271 23.8555 147.909 24.0093 148.65 24.0093C149.584 24.0093 150.353 23.8042 150.957 23.394C151.561 22.9839 152.033 22.4313 152.375 21.7363C152.728 21.0299 152.968 20.2438 153.093 19.3779V16.2847C153.025 15.6125 152.882 14.9858 152.666 14.4048C152.461 13.8237 152.182 13.3167 151.828 12.8838C151.475 12.4395 151.036 12.0977 150.512 11.8584C150 11.6077 149.39 11.4824 148.684 11.4824C147.932 11.4824 147.294 11.6419 146.77 11.9609C146.246 12.2799 145.813 12.7186 145.471 13.2769C145.14 13.8351 144.896 14.4845 144.736 15.2251C144.577 15.9657 144.497 16.7575 144.497 17.6006Z" fill="#08CB00"/>
</svg>
