<svg width="536" height="97" viewBox="0 0 536 97" fill="none" xmlns="http://www.w3.org/2000/svg">
<path d="M211.614 15.6C214.714 15.6 217.38 16.034 219.612 16.902C221.844 17.77 223.559 19.01 224.758 20.622C225.957 22.234 226.556 24.1767 226.556 26.45C226.556 28.8473 225.874 30.914 224.51 32.65C223.187 34.386 221.348 35.5227 218.992 36.06C221.844 36.5973 224.097 37.8373 225.75 39.78C227.403 41.7227 228.23 44.1407 228.23 47.034C228.23 49.514 227.569 51.6633 226.246 53.482C224.923 55.2593 223.063 56.6233 220.666 57.574C218.31 58.5247 215.479 59 212.172 59H192.332V15.6H211.614ZM211.18 33.456C213.329 33.456 215.003 32.96 216.202 31.968C217.442 30.976 218.062 29.5913 218.062 27.814C218.062 26.1193 217.442 24.7967 216.202 23.846C215.003 22.8953 213.329 22.4407 211.18 22.482H200.64V33.456H211.18ZM211.18 52.118C213.825 52.1593 215.892 51.6427 217.38 50.568C218.868 49.4933 219.612 47.9847 219.612 46.042C219.612 44.2233 218.868 42.7973 217.38 41.764C215.892 40.6893 213.825 40.152 211.18 40.152H200.64V52.118H211.18ZM249.557 63.34C248.482 65.9853 246.994 67.99 245.093 69.354C243.192 70.718 240.918 71.4 238.273 71.4C236.661 71.4 235.194 71.152 233.871 70.656C232.59 70.16 231.308 69.4367 230.027 68.486L233.499 62.658C234.987 63.774 236.413 64.332 237.777 64.332C238.852 64.332 239.782 64.0427 240.567 63.464C241.394 62.8853 242.076 61.9967 242.613 60.798L243.605 58.504L229.903 25.954H238.273L247.697 50.506L256.315 25.954H264.437L249.557 63.34ZM277.826 48.212C277.826 49.8653 278.136 51.002 278.756 51.622C279.376 52.242 280.223 52.552 281.298 52.552C281.959 52.552 282.682 52.4487 283.468 52.242C284.253 51.994 285.1 51.622 286.01 51.126L287.87 56.954C286.63 57.698 285.286 58.2973 283.84 58.752C282.434 59.1653 281.008 59.372 279.562 59.372C277.784 59.372 276.152 59.0413 274.664 58.38C273.176 57.6773 271.998 56.6027 271.13 55.156C270.262 53.668 269.828 51.808 269.828 49.576V18.142H277.826V48.212ZM265.178 27.194H287.312V32.836H265.178V27.194ZM315.655 39.966C315.573 38.23 315.18 36.7627 314.477 35.564C313.775 34.324 312.783 33.3733 311.501 32.712C310.261 32.0093 308.835 31.658 307.223 31.658C305.363 31.658 303.751 32.092 302.387 32.96C301.023 33.828 299.949 35.0473 299.163 36.618C298.419 38.1887 298.047 40.0073 298.047 42.074C298.047 44.3473 298.461 46.3107 299.287 47.964C300.155 49.6173 301.333 50.8987 302.821 51.808C304.309 52.676 306.025 53.11 307.967 53.11C311.481 53.11 314.477 51.8493 316.957 49.328L321.235 53.606C319.582 55.4247 317.577 56.83 315.221 57.822C312.865 58.814 310.241 59.31 307.347 59.31C303.875 59.31 300.858 58.6073 298.295 57.202C295.774 55.7553 293.79 53.792 292.343 51.312C290.938 48.7907 290.235 45.856 290.235 42.508C290.235 39.16 290.938 36.2253 292.343 33.704C293.79 31.1827 295.774 29.2193 298.295 27.814C300.858 26.4087 303.793 25.6853 307.099 25.644C311.026 25.644 314.188 26.45 316.585 28.062C319.024 29.674 320.76 31.9473 321.793 34.882C322.827 37.7753 323.199 41.2267 322.909 45.236H296.869V39.966H315.655Z" fill="#004030"/>
<path d="M348.379 15.6C351.561 15.6 354.517 16.158 357.245 17.274C359.973 18.3487 362.329 19.878 364.313 21.862C366.338 23.8047 367.909 26.0987 369.025 28.744C370.182 31.3893 370.761 34.2413 370.761 37.3C370.761 40.4 370.182 43.252 369.025 45.856C367.909 48.46 366.338 50.754 364.313 52.738C362.287 54.722 359.911 56.272 357.183 57.388C354.455 58.4627 351.499 59 348.317 59H330.895V15.6H348.379ZM348.503 54.722C350.941 54.722 353.194 54.288 355.261 53.42C357.327 52.552 359.146 51.3327 360.717 49.762C362.287 48.15 363.507 46.29 364.375 44.182C365.284 42.074 365.739 39.8007 365.739 37.362C365.739 34.882 365.284 32.588 364.375 30.48C363.465 28.372 362.225 26.5327 360.655 24.962C359.084 23.35 357.245 22.11 355.137 21.242C353.029 20.374 350.755 19.94 348.317 19.94H335.855V54.722H348.503ZM402.323 40.772C402.24 38.5813 401.723 36.7007 400.773 35.13C399.863 33.518 398.603 32.278 396.991 31.41C395.42 30.542 393.56 30.108 391.411 30.108C389.137 30.108 387.133 30.6247 385.397 31.658C383.702 32.6913 382.359 34.138 381.367 35.998C380.375 37.858 379.879 40.028 379.879 42.508C379.879 45.0707 380.375 47.3233 381.367 49.266C382.4 51.1673 383.826 52.6553 385.645 53.73C387.463 54.8047 389.53 55.342 391.845 55.342C395.978 55.342 399.347 53.9367 401.951 51.126L404.617 53.792C403.046 55.4867 401.145 56.8093 398.913 57.76C396.681 58.6693 394.221 59.124 391.535 59.124C388.311 59.124 385.459 58.442 382.979 57.078C380.54 55.6727 378.639 53.73 377.275 51.25C375.911 48.77 375.229 45.918 375.229 42.694C375.229 39.47 375.911 36.6387 377.275 34.2C378.639 31.72 380.54 29.798 382.979 28.434C385.459 27.0287 388.269 26.3053 391.411 26.264C394.924 26.264 397.838 27.0287 400.153 28.558C402.467 30.046 404.162 32.154 405.237 34.882C406.353 37.5687 406.807 40.7307 406.601 44.368H379.011V40.772H402.323ZM431.58 32.588C430.298 31.8027 428.872 31.1827 427.302 30.728C425.731 30.2733 424.202 30.046 422.714 30.046C420.895 30.046 419.366 30.418 418.126 31.162C416.886 31.8647 416.266 33.022 416.266 34.634C416.266 35.874 416.7 36.866 417.568 37.61C418.477 38.3127 419.614 38.912 420.978 39.408C422.383 39.8627 423.85 40.3173 425.38 40.772C426.909 41.2267 428.376 41.8053 429.782 42.508C431.187 43.1693 432.324 44.0993 433.192 45.298C434.06 46.4967 434.494 48.0673 434.494 50.01C434.494 52.118 433.915 53.854 432.758 55.218C431.642 56.5407 430.174 57.5327 428.356 58.194C426.578 58.814 424.636 59.124 422.528 59.124C420.213 59.124 417.94 58.7313 415.708 57.946C413.476 57.1607 411.574 56.0447 410.004 54.598L411.864 51.312C413.269 52.5933 414.943 53.606 416.886 54.35C418.87 55.0527 420.812 55.404 422.714 55.404C423.995 55.404 425.152 55.2387 426.186 54.908C427.26 54.536 428.108 53.9987 428.728 53.296C429.389 52.552 429.72 51.622 429.72 50.506C429.761 49.142 429.348 48.088 428.48 47.344C427.653 46.5587 426.537 45.918 425.132 45.422C423.768 44.926 422.3 44.4507 420.73 43.996C419.2 43.5413 417.733 42.9833 416.328 42.322C414.964 41.6193 413.848 40.71 412.98 39.594C412.112 38.4367 411.678 36.8867 411.678 34.944C411.678 32.9187 412.215 31.2653 413.29 29.984C414.364 28.7027 415.749 27.752 417.444 27.132C419.18 26.512 421.04 26.202 423.024 26.202C424.966 26.202 426.847 26.4707 428.666 27.008C430.484 27.504 432.076 28.2067 433.44 29.116L431.58 32.588ZM441.818 26.388H446.592V59H441.818V26.388ZM444.174 13.926C445.083 13.926 445.827 14.236 446.406 14.856C447.026 15.4347 447.336 16.1787 447.336 17.088C447.336 17.956 447.026 18.7 446.406 19.32C445.827 19.94 445.083 20.25 444.174 20.25C443.306 20.25 442.562 19.94 441.942 19.32C441.322 18.7 441.012 17.956 441.012 17.088C441.012 16.1787 441.322 15.4347 441.942 14.856C442.562 14.236 443.306 13.926 444.174 13.926ZM486.185 55.59C486.185 58.7727 485.503 61.5213 484.139 63.836C482.775 66.1507 480.874 67.9487 478.435 69.23C475.996 70.5113 473.103 71.152 469.755 71.152C467.192 71.152 464.816 70.718 462.625 69.85C460.434 69.0233 458.347 67.8453 456.363 66.316L458.595 62.968C460.207 64.332 461.902 65.386 463.679 66.13C465.456 66.874 467.42 67.246 469.569 67.246C471.966 67.246 474.033 66.7707 475.769 65.82C477.546 64.8693 478.91 63.526 479.861 61.79C480.853 60.0953 481.349 58.07 481.349 55.714V26.388H486.185V55.59ZM469.197 26.264C472.09 26.2227 474.591 26.8633 476.699 28.186C478.807 29.4673 480.44 31.286 481.597 33.642C482.796 35.9567 483.374 38.7053 483.333 41.888C483.374 45.0707 482.816 47.84 481.659 50.196C480.502 52.552 478.869 54.3707 476.761 55.652C474.653 56.9333 472.173 57.574 469.321 57.574C466.386 57.574 463.803 56.9127 461.571 55.59C459.339 54.2673 457.582 52.428 456.301 50.072C455.061 47.6747 454.441 44.9467 454.441 41.888C454.441 38.8293 455.061 36.1427 456.301 33.828C457.541 31.472 459.277 29.6327 461.509 28.31C463.741 26.946 466.304 26.264 469.197 26.264ZM470.189 30.046C468.04 30.046 466.118 30.5627 464.423 31.596C462.728 32.6293 461.406 34.0553 460.455 35.874C459.504 37.6513 459.008 39.6973 458.967 42.012C459.008 44.2853 459.504 46.3313 460.455 48.15C461.406 49.9273 462.708 51.3327 464.361 52.366C466.056 53.358 467.998 53.854 470.189 53.854C472.38 53.854 474.302 53.358 475.955 52.366C477.65 51.3327 478.972 49.9273 479.923 48.15C480.874 46.3313 481.349 44.2853 481.349 42.012C481.349 39.656 480.874 37.5893 479.923 35.812C478.972 34.0347 477.65 32.6293 475.955 31.596C474.302 30.5627 472.38 30.046 470.189 30.046ZM521.571 40.09C521.571 37.114 520.744 34.7993 519.091 33.146C517.479 31.4513 515.226 30.604 512.333 30.604C508.861 30.6453 506.154 31.8233 504.211 34.138C502.268 36.4113 501.297 39.3667 501.297 43.004H499.623C499.623 39.2013 500.202 36.0807 501.359 33.642C502.516 31.162 504.17 29.3227 506.319 28.124C508.51 26.884 511.072 26.264 514.007 26.264C516.611 26.264 518.843 26.7807 520.703 27.814C522.563 28.8473 523.968 30.3147 524.919 32.216C525.911 34.076 526.407 36.3287 526.407 38.974V59H521.571V40.09ZM496.523 26.388H501.359V59H496.523V26.388Z" fill="#4A9782"/>
<path d="M205.572 79.5C205.572 79.8516 205.504 80.0859 205.367 80.2031C205.237 80.3138 205.094 80.3691 204.938 80.3691C204.931 80.3691 204.924 80.3691 204.918 80.3691C204.762 80.3691 204.508 80.3008 204.156 80.1641C203.798 80.0208 203.375 79.9492 202.887 79.9492C202.405 79.9492 202.05 80.0339 201.822 80.2031C201.601 80.3724 201.448 80.6198 201.363 80.9453C201.285 81.2643 201.181 82.6087 201.051 84.9785C200.927 87.3418 200.865 88.6764 200.865 88.9824C200.865 89.2819 200.93 89.679 201.061 90.1738C201.191 90.6686 201.256 90.9388 201.256 90.9844C201.256 91.3034 201.109 91.5508 200.816 91.7266C200.53 91.9023 200.13 91.9902 199.615 91.9902C199.101 91.9902 198.704 91.9056 198.424 91.7363C198.144 91.5605 198.004 91.3197 198.004 91.0137C198.004 90.877 198.105 90.5872 198.307 90.1445C198.515 89.6953 198.648 89.2559 198.707 88.8262C198.954 86.9186 199.078 84.6302 199.078 81.9609C199.078 81.1602 198.987 80.6328 198.805 80.3789C198.622 80.1185 198.303 79.9883 197.848 79.9883C197.392 79.9883 196.9 80.0892 196.373 80.291C195.846 80.4863 195.523 80.584 195.406 80.584C195.087 80.584 194.928 80.2487 194.928 79.5781C194.928 78.9076 195.24 78.5202 195.865 78.416C196.49 78.3053 198.46 78.25 201.773 78.25H202.34L202.896 78.2402C204.107 78.2402 204.794 78.2663 204.957 78.3184C205.367 78.4486 205.572 78.7676 205.572 79.2754V79.5ZM208.251 90.7695H208.505C209.039 90.7695 209.507 90.5905 209.911 90.2324C210.321 89.8678 210.526 89.4479 210.526 88.9727L210.546 88.8457V88.7188L210.565 88.416V87.8594C210.565 87.4818 210.373 87.293 209.989 87.293H209.55L209.481 87.3027L209.1 87.332C208.918 87.3581 208.788 87.3711 208.71 87.3711C208.182 87.3711 207.694 87.5697 207.245 87.9668C206.932 88.2467 206.776 88.6439 206.776 89.1582V89.3535C206.776 89.7897 206.916 90.1348 207.196 90.3887C207.483 90.6426 207.834 90.7695 208.251 90.7695ZM206.073 84.5293C205.637 84.5293 205.419 84.2493 205.419 83.6895C205.419 83.2728 205.77 82.9115 206.473 82.6055C207.183 82.293 207.919 82.1367 208.68 82.1367H209.169C209.826 82.1367 210.406 82.2604 210.907 82.5078C211.408 82.7487 211.789 83.0775 212.05 83.4941C212.317 83.9108 212.479 84.4544 212.538 85.125C212.551 85.2812 212.557 86.0397 212.557 87.4004C212.557 88.7611 212.574 89.5456 212.606 89.7539C212.645 89.9557 212.749 90.2031 212.919 90.4961C213.095 90.7891 213.182 91.0299 213.182 91.2188C213.182 91.4076 213.091 91.5703 212.909 91.707C212.733 91.8372 212.476 91.9023 212.137 91.9023C211.799 91.9023 211.431 91.821 211.034 91.6582C210.637 91.4889 210.347 91.4043 210.165 91.4043C210.145 91.4043 209.82 91.5215 209.188 91.7559C208.557 91.9837 208.023 92.0977 207.587 92.0977H207.372C206.643 92.0977 206.021 91.8665 205.507 91.4043C204.999 90.9421 204.745 90.2845 204.745 89.4316C204.745 88.5788 205.025 87.9147 205.585 87.4395C206.145 86.9577 206.825 86.6289 207.626 86.4531C207.867 86.401 208.267 86.3327 208.827 86.248C209.387 86.1634 209.768 86.0755 209.97 85.9844C210.321 85.8216 210.497 85.5156 210.497 85.0664C210.497 84.6107 210.347 84.2559 210.048 84.002C209.748 83.7415 209.39 83.6113 208.973 83.6113C208.563 83.6113 208.023 83.7643 207.352 84.0703C206.682 84.3763 206.255 84.5293 206.073 84.5293ZM218.625 87.7227C218.045 87.7227 217.755 88.4876 217.755 90.0176C217.755 90.6816 217.619 91.1309 217.345 91.3652C217.072 91.5996 216.743 91.7168 216.359 91.7168C215.975 91.7168 215.701 91.6517 215.539 91.5215C215.382 91.3913 215.304 91.1471 215.304 90.7891C215.304 90.763 215.34 90.5059 215.412 90.0176C215.483 89.5293 215.574 88.0124 215.685 85.4668C215.796 82.9147 215.851 81.3555 215.851 80.7891C215.851 80.2227 215.835 79.8548 215.802 79.6855C215.776 79.5098 215.731 79.2982 215.666 79.0508C215.607 78.8034 215.578 78.6471 215.578 78.582C215.578 78.2956 215.672 78.1003 215.861 77.9961C216.056 77.8854 216.379 77.8301 216.828 77.8301C217.283 77.8301 217.583 77.9473 217.726 78.1816C217.876 78.416 217.951 78.888 217.951 79.5977L217.824 83.7383C217.824 84.9232 217.961 85.5156 218.234 85.5156C218.449 85.5156 218.976 85.0729 219.816 84.1875C220.662 83.3021 221.095 82.8529 221.115 82.8398C221.375 82.6576 221.769 82.5664 222.296 82.5664C222.824 82.5664 223.087 82.6966 223.087 82.957C223.087 83.0872 222.668 83.6374 221.828 84.6074C220.988 85.5775 220.568 86.2904 220.568 86.7461C220.568 86.9935 221.046 87.8073 222.004 89.1875C222.349 89.6823 222.674 90.112 222.98 90.4766C223.293 90.8346 223.449 91.0918 223.449 91.248C223.449 91.5736 223.146 91.7363 222.541 91.7363C221.942 91.7363 221.479 91.5638 221.154 91.2188C221.076 91.1341 220.893 90.8477 220.607 90.3594C220.321 89.8711 220.119 89.5293 220.002 89.334C219.331 88.2598 218.872 87.7227 218.625 87.7227ZM228.588 79.3047V79.4219C228.588 79.7539 228.491 80.0371 228.295 80.2715C228.107 80.4993 227.814 80.6133 227.416 80.6133H227.26L226.957 80.5742C226.782 80.5742 226.612 80.4928 226.45 80.3301C226.287 80.1673 226.205 79.9232 226.205 79.5977V79.4805L226.254 79.1289C226.254 78.9922 226.336 78.8229 226.498 78.6211C226.668 78.4193 226.883 78.3184 227.143 78.3184L227.368 78.2891H227.563L227.836 78.3281C228.006 78.3281 228.172 78.4128 228.334 78.582C228.504 78.7448 228.588 78.9857 228.588 79.3047ZM228.129 83.4258L228.022 86.0527L228.002 86.3164L227.973 87.1172V87.498C227.973 88.4355 227.999 89.0508 228.051 89.3438C228.11 89.6367 228.217 89.9232 228.373 90.2031C228.53 90.4766 228.608 90.6751 228.608 90.7988V90.8867C228.608 91.2057 228.445 91.4596 228.12 91.6484C227.794 91.8372 227.351 91.9316 226.791 91.9316H226.547C226.222 91.9316 225.974 91.86 225.805 91.7168C225.636 91.5671 225.551 91.4076 225.551 91.2383V91.0234C225.551 90.9388 225.626 90.6393 225.776 90.125C225.926 89.6042 226 88.8978 226 88.0059C226.02 87.752 226.03 87.5762 226.03 87.4785L226.059 86.9414L226.079 86.6777C226.111 86.222 226.127 85.8672 226.127 85.6133L226.137 85.2227C226.137 84.7344 226.056 84.3014 225.893 83.9238C225.737 83.5462 225.659 83.3118 225.659 83.2207C225.659 82.752 226.101 82.5176 226.987 82.5176H227.338C227.67 82.5176 227.885 82.6055 227.983 82.7812C228.08 82.9505 228.129 83.1654 228.129 83.4258ZM239.675 90.8281C239.675 91.3099 239.255 91.5508 238.415 91.5508C237.94 91.5508 237.621 91.4368 237.458 91.209C237.38 91.0983 237.341 90.8379 237.341 90.4277L237.312 89.8027C237.266 89.1191 237.243 88.4323 237.243 87.7422C237.243 86.2513 237.113 85.252 236.853 84.7441C236.599 84.2298 236.169 83.9727 235.564 83.9727C235.16 83.9727 234.786 84.0931 234.441 84.334C234.102 84.5749 233.842 84.9102 233.659 85.3398C233.282 86.2188 233.093 87.8431 233.093 90.2129C233.093 90.7533 232.989 91.1341 232.78 91.3555C232.579 91.5768 232.318 91.6875 231.999 91.6875H231.804C231.075 91.6875 230.71 91.3978 230.71 90.8184V90.584C230.71 90.5124 230.749 90.3561 230.827 90.1152L230.984 89.666C231.14 89.1387 231.218 88.0091 231.218 86.2773L231.267 83.377C231.267 83.0059 231.469 82.8203 231.872 82.8203C232.276 82.8203 232.673 82.9538 233.064 83.2207C233.461 83.4876 233.711 83.6211 233.816 83.6211C233.926 83.6211 234.118 83.5462 234.392 83.3965C235.31 82.8952 236.045 82.6445 236.599 82.6445H236.853C237.849 82.6445 238.549 83.0938 238.952 83.9922C239.148 84.4154 239.245 85.3268 239.245 86.7266V86.7949C239.245 86.9121 239.242 87.0293 239.236 87.1465C239.236 87.4655 239.236 87.6315 239.236 87.6445C239.236 87.7682 239.236 87.8887 239.236 88.0059C239.236 88.097 239.236 88.1849 239.236 88.2695C239.236 88.7708 239.252 89.1126 239.284 89.2949C239.33 89.5423 239.405 89.7995 239.509 90.0664C239.62 90.3594 239.675 90.6133 239.675 90.8281ZM243.369 87.4785V87.7812C243.369 88.6536 243.535 89.3372 243.867 89.832C244.199 90.3268 244.616 90.5742 245.117 90.5742H245.459C246.182 90.5742 246.745 90.2715 247.148 89.666C247.552 89.054 247.754 88.1979 247.754 87.0977C247.767 86.9674 247.773 86.8665 247.773 86.7949L247.793 86.3945V85.8086C247.78 85.6784 247.773 85.5807 247.773 85.5156C247.773 85.0013 247.65 84.5977 247.402 84.3047C247.155 84.0117 246.79 83.8652 246.309 83.8652H246.035C245.267 83.8652 244.629 84.1875 244.121 84.832C243.62 85.4766 243.369 86.3587 243.369 87.4785ZM249.043 83.0645C249.609 83.0645 249.893 83.4746 249.893 84.2949C249.893 84.5098 249.805 85.4082 249.629 86.9902C249.453 88.5723 249.365 89.9167 249.365 91.0234C249.365 92.1432 249.29 92.9831 249.141 93.543C248.822 94.7474 248.083 95.6003 246.924 96.1016C246.318 96.362 245.648 96.4922 244.912 96.4922C244.183 96.4922 243.532 96.362 242.959 96.1016C242.393 95.8411 242.109 95.5286 242.109 95.1641C242.109 94.7474 242.389 94.5391 242.949 94.5391C243.06 94.5391 243.359 94.5814 243.848 94.666C244.336 94.7507 244.688 94.793 244.902 94.793C245.69 94.793 246.335 94.5456 246.836 94.0508C247.344 93.5625 247.598 92.9342 247.598 92.166C247.598 91.7624 247.448 91.5605 247.148 91.5605C247.096 91.5605 246.973 91.5801 246.777 91.6191C246.224 91.7298 245.719 91.7852 245.264 91.7852C244.105 91.7852 243.232 91.4336 242.646 90.7305C242.373 90.4049 242.139 89.972 241.943 89.4316C241.755 88.8848 241.66 88.3086 241.66 87.7031V87.4297C241.66 86.7917 241.764 86.1634 241.973 85.5449C242.188 84.9199 242.471 84.3958 242.822 83.9727C243.174 83.543 243.633 83.2077 244.199 82.9668C244.766 82.7259 245.345 82.6055 245.938 82.6055H246.191C246.523 82.6055 246.95 82.6966 247.471 82.8789C247.998 83.0547 248.32 83.1426 248.438 83.1426C248.698 83.0905 248.9 83.0645 249.043 83.0645ZM267.164 79.666C267.164 78.9954 267.645 78.6602 268.609 78.6602C268.83 78.6602 269.045 78.7448 269.254 78.9141C269.462 79.0833 269.566 79.3177 269.566 79.6172C269.566 79.9167 269.472 80.3138 269.283 80.8086C269.094 81.3034 268.977 81.7721 268.931 82.2148C268.886 82.6576 268.785 84.194 268.629 86.8242C268.472 89.4544 268.371 90.8672 268.326 91.0625C268.235 91.4531 268.043 91.6484 267.75 91.6484C267.17 91.6484 266.584 91.2676 265.992 90.5059C265.855 90.3301 264.96 88.888 263.306 86.1797C261.659 83.4648 260.692 82.1074 260.406 82.1074L260.279 82.1855C260.227 82.2637 260.181 82.459 260.142 82.7715C259.934 84.5553 259.83 86.4857 259.83 88.5625C259.83 88.7839 259.843 89.0247 259.869 89.2852L259.908 89.6172C259.947 89.9427 259.966 90.1445 259.966 90.2227C259.966 90.6719 259.813 91.0332 259.507 91.3066C259.208 91.5801 258.856 91.7168 258.453 91.7168H258.121C257.711 91.7168 257.505 91.5638 257.505 91.2578C257.505 90.9453 257.593 90.597 257.769 90.2129C257.945 89.8288 258.062 89.3926 258.121 88.9043C258.401 86.554 258.541 84.0312 258.541 81.3359C258.541 80.8737 258.508 80.4896 258.443 80.1836L258.355 79.8516L258.257 79.5488C258.205 79.3665 258.179 79.1875 258.179 79.0117C258.179 78.7708 258.41 78.6504 258.873 78.6504C259.758 78.6504 260.549 79.041 261.246 79.8223C261.949 80.597 263.007 82.1302 264.42 84.4219C265.832 86.7135 266.594 87.8594 266.705 87.8594L266.841 87.8203C266.88 87.7617 266.92 87.5534 266.959 87.1953C267.199 84.9362 267.32 82.9538 267.32 81.248C267.32 81.0983 267.304 80.8704 267.271 80.5645L267.232 80.252C267.186 79.9329 267.164 79.7376 267.164 79.666ZM274.432 79.3047V79.4219C274.432 79.7539 274.334 80.0371 274.139 80.2715C273.95 80.4993 273.657 80.6133 273.26 80.6133H273.104L272.801 80.5742C272.625 80.5742 272.456 80.4928 272.293 80.3301C272.131 80.1673 272.049 79.9232 272.049 79.5977V79.4805L272.098 79.1289C272.098 78.9922 272.179 78.8229 272.342 78.6211C272.511 78.4193 272.726 78.3184 272.987 78.3184L273.211 78.2891H273.407L273.68 78.3281C273.849 78.3281 274.015 78.4128 274.178 78.582C274.347 78.7448 274.432 78.9857 274.432 79.3047ZM273.973 83.4258L273.866 86.0527L273.846 86.3164L273.817 87.1172V87.498C273.817 88.4355 273.843 89.0508 273.895 89.3438C273.954 89.6367 274.061 89.9232 274.217 90.2031C274.373 90.4766 274.452 90.6751 274.452 90.7988V90.8867C274.452 91.2057 274.289 91.4596 273.963 91.6484C273.638 91.8372 273.195 91.9316 272.635 91.9316H272.391C272.065 91.9316 271.818 91.86 271.649 91.7168C271.48 91.5671 271.395 91.4076 271.395 91.2383V91.0234C271.395 90.9388 271.47 90.6393 271.62 90.125C271.769 89.6042 271.844 88.8978 271.844 88.0059C271.864 87.752 271.873 87.5762 271.873 87.4785L271.903 86.9414L271.922 86.6777C271.955 86.222 271.971 85.8672 271.971 85.6133L271.981 85.2227C271.981 84.7344 271.899 84.3014 271.737 83.9238C271.58 83.5462 271.502 83.3118 271.502 83.2207C271.502 82.752 271.945 82.5176 272.83 82.5176H273.182C273.514 82.5176 273.729 82.6055 273.827 82.7812C273.924 82.9505 273.973 83.1654 273.973 83.4258ZM278.282 87.4785V87.7812C278.282 88.6536 278.448 89.3372 278.78 89.832C279.113 90.3268 279.529 90.5742 280.03 90.5742H280.372C281.095 90.5742 281.658 90.2715 282.062 89.666C282.465 89.054 282.667 88.1979 282.667 87.0977C282.68 86.9674 282.687 86.8665 282.687 86.7949L282.706 86.3945V85.8086C282.693 85.6784 282.687 85.5807 282.687 85.5156C282.687 85.0013 282.563 84.5977 282.316 84.3047C282.068 84.0117 281.704 83.8652 281.222 83.8652H280.948C280.18 83.8652 279.542 84.1875 279.034 84.832C278.533 85.4766 278.282 86.3587 278.282 87.4785ZM283.956 83.0645C284.523 83.0645 284.806 83.4746 284.806 84.2949C284.806 84.5098 284.718 85.4082 284.542 86.9902C284.366 88.5723 284.279 89.9167 284.279 91.0234C284.279 92.1432 284.204 92.9831 284.054 93.543C283.735 94.7474 282.996 95.6003 281.837 96.1016C281.232 96.362 280.561 96.4922 279.825 96.4922C279.096 96.4922 278.445 96.362 277.872 96.1016C277.306 95.8411 277.023 95.5286 277.023 95.1641C277.023 94.7474 277.303 94.5391 277.863 94.5391C277.973 94.5391 278.273 94.5814 278.761 94.666C279.249 94.7507 279.601 94.793 279.816 94.793C280.603 94.793 281.248 94.5456 281.749 94.0508C282.257 93.5625 282.511 92.9342 282.511 92.166C282.511 91.7624 282.361 91.5605 282.062 91.5605C282.01 91.5605 281.886 91.5801 281.691 91.6191C281.137 91.7298 280.633 91.7852 280.177 91.7852C279.018 91.7852 278.146 91.4336 277.56 90.7305C277.286 90.4049 277.052 89.972 276.857 89.4316C276.668 88.8848 276.573 88.3086 276.573 87.7031V87.4297C276.573 86.7917 276.678 86.1634 276.886 85.5449C277.101 84.9199 277.384 84.3958 277.736 83.9727C278.087 83.543 278.546 83.2077 279.113 82.9668C279.679 82.7259 280.258 82.6055 280.851 82.6055H281.105C281.437 82.6055 281.863 82.6966 282.384 82.8789C282.911 83.0547 283.234 83.1426 283.351 83.1426C283.611 83.0905 283.813 83.0645 283.956 83.0645ZM288.842 86.0625V86.2188C288.842 86.4141 289.021 86.5117 289.379 86.5117H289.613L289.672 86.502L290.15 86.4629C290.652 86.3913 290.977 86.3555 291.127 86.3555C291.837 86.3555 292.37 86.222 292.729 85.9551C292.898 85.8249 292.982 85.5938 292.982 85.2617V85.1543C292.982 84.666 292.82 84.2786 292.494 83.9922C292.175 83.7057 291.791 83.5625 291.342 83.5625H291.273L291.215 83.5723C290.583 83.5723 290.03 83.8392 289.555 84.373C289.079 84.9069 288.842 85.4701 288.842 86.0625ZM290.971 92.127H290.756C289.512 92.127 288.523 91.7331 287.787 90.9453C287.051 90.151 286.684 89.0931 286.684 87.7715V87.3418C286.684 86.7103 286.807 86.069 287.055 85.418C287.556 84.1159 288.373 83.2174 289.506 82.7227C290.105 82.4557 290.714 82.3223 291.332 82.3223H291.752C292.605 82.3223 293.324 82.6087 293.91 83.1816C294.503 83.748 294.799 84.4805 294.799 85.3789V85.5742C294.799 86.2122 294.545 86.6647 294.037 86.9316C293.686 87.1204 292.865 87.3092 291.576 87.498C290.287 87.6868 289.584 87.8008 289.467 87.8398C289.076 87.9766 288.881 88.237 288.881 88.6211C288.881 89.1549 289.109 89.6107 289.564 89.9883C290.02 90.3659 290.632 90.5547 291.4 90.5547C291.758 90.5547 292.247 90.457 292.865 90.2617C293.484 90.0664 293.842 89.9688 293.939 89.9688C294.271 89.9688 294.438 90.112 294.438 90.3984C294.438 90.7826 294.063 91.1667 293.314 91.5508C292.566 91.9349 291.785 92.127 290.971 92.127ZM297.243 86.9219V86.1699C297.243 85.265 297.194 84.6042 297.096 84.1875C296.999 83.7643 296.95 83.4681 296.95 83.2988C296.95 82.9017 297.24 82.7031 297.819 82.7031C298.399 82.7031 298.818 82.8105 299.079 83.0254C299.151 83.084 299.242 83.1979 299.352 83.3672C299.47 83.5365 299.574 83.6211 299.665 83.6211C299.684 83.6211 299.968 83.4551 300.514 83.123C301.061 82.791 301.53 82.625 301.921 82.625H302.067C302.386 82.625 302.64 82.7031 302.829 82.8594C303.018 83.0091 303.112 83.1947 303.112 83.416V83.543C303.112 83.8099 303.018 84.002 302.829 84.1191C302.647 84.2363 302.354 84.2949 301.95 84.2949C301.032 84.2949 300.361 84.6172 299.938 85.2617C299.522 85.9062 299.313 87.0456 299.313 88.6797C299.313 88.9141 299.352 89.2754 299.43 89.7637C299.515 90.252 299.557 90.6198 299.557 90.8672C299.557 91.1146 299.424 91.3522 299.157 91.5801C298.89 91.8079 298.552 91.9219 298.141 91.9219H297.809C297.451 91.9219 297.175 91.8372 296.979 91.668C296.79 91.4922 296.696 91.2806 296.696 91.0332C296.696 90.7793 296.742 90.5221 296.833 90.2617C297.08 89.5586 297.204 88.7839 297.204 87.9375C297.23 87.4688 297.243 87.1302 297.243 86.9219ZM307.568 79.3047V79.4219C307.568 79.7539 307.47 80.0371 307.275 80.2715C307.086 80.4993 306.793 80.6133 306.396 80.6133H306.24L305.937 80.5742C305.761 80.5742 305.592 80.4928 305.429 80.3301C305.267 80.1673 305.185 79.9232 305.185 79.5977V79.4805L305.234 79.1289C305.234 78.9922 305.315 78.8229 305.478 78.6211C305.647 78.4193 305.862 78.3184 306.123 78.3184L306.347 78.2891H306.543L306.816 78.3281C306.985 78.3281 307.151 78.4128 307.314 78.582C307.483 78.7448 307.568 78.9857 307.568 79.3047ZM307.109 83.4258L307.002 86.0527L306.982 86.3164L306.953 87.1172V87.498C306.953 88.4355 306.979 89.0508 307.031 89.3438C307.089 89.6367 307.197 89.9232 307.353 90.2031C307.509 90.4766 307.588 90.6751 307.588 90.7988V90.8867C307.588 91.2057 307.425 91.4596 307.099 91.6484C306.774 91.8372 306.331 91.9316 305.771 91.9316H305.527C305.201 91.9316 304.954 91.86 304.785 91.7168C304.615 91.5671 304.531 91.4076 304.531 91.2383V91.0234C304.531 90.9388 304.606 90.6393 304.755 90.125C304.905 89.6042 304.98 88.8978 304.98 88.0059C305 87.752 305.009 87.5762 305.009 87.4785L305.039 86.9414L305.058 86.6777C305.091 86.222 305.107 85.8672 305.107 85.6133L305.117 85.2227C305.117 84.7344 305.035 84.3014 304.873 83.9238C304.716 83.5462 304.638 83.3118 304.638 83.2207C304.638 82.752 305.081 82.5176 305.966 82.5176H306.318C306.65 82.5176 306.865 82.6055 306.963 82.7812C307.06 82.9505 307.109 83.1654 307.109 83.4258ZM312.815 90.7695H313.069C313.603 90.7695 314.071 90.5905 314.475 90.2324C314.885 89.8678 315.09 89.4479 315.09 88.9727L315.11 88.8457V88.7188L315.129 88.416V87.8594C315.129 87.4818 314.937 87.293 314.553 87.293H314.114L314.045 87.3027L313.664 87.332C313.482 87.3581 313.352 87.3711 313.274 87.3711C312.746 87.3711 312.258 87.5697 311.809 87.9668C311.496 88.2467 311.34 88.6439 311.34 89.1582V89.3535C311.34 89.7897 311.48 90.1348 311.76 90.3887C312.047 90.6426 312.398 90.7695 312.815 90.7695ZM310.637 84.5293C310.201 84.5293 309.983 84.2493 309.983 83.6895C309.983 83.2728 310.334 82.9115 311.037 82.6055C311.747 82.293 312.483 82.1367 313.245 82.1367H313.733C314.39 82.1367 314.97 82.2604 315.471 82.5078C315.972 82.7487 316.353 83.0775 316.614 83.4941C316.881 83.9108 317.043 84.4544 317.102 85.125C317.115 85.2812 317.121 86.0397 317.121 87.4004C317.121 88.7611 317.138 89.5456 317.17 89.7539C317.209 89.9557 317.314 90.2031 317.483 90.4961C317.659 90.7891 317.746 91.0299 317.746 91.2188C317.746 91.4076 317.655 91.5703 317.473 91.707C317.297 91.8372 317.04 91.9023 316.702 91.9023C316.363 91.9023 315.995 91.821 315.598 91.6582C315.201 91.4889 314.911 91.4043 314.729 91.4043C314.709 91.4043 314.384 91.5215 313.752 91.7559C313.121 91.9837 312.587 92.0977 312.151 92.0977H311.936C311.207 92.0977 310.585 91.8665 310.071 91.4043C309.563 90.9421 309.309 90.2845 309.309 89.4316C309.309 88.5788 309.589 87.9147 310.149 87.4395C310.709 86.9577 311.389 86.6289 312.19 86.4531C312.431 86.401 312.831 86.3327 313.391 86.248C313.951 86.1634 314.332 86.0755 314.534 85.9844C314.885 85.8216 315.061 85.5156 315.061 85.0664C315.061 84.6107 314.911 84.2559 314.612 84.002C314.312 83.7415 313.954 83.6113 313.537 83.6113C313.127 83.6113 312.587 83.7643 311.916 84.0703C311.246 84.3763 310.819 84.5293 310.637 84.5293ZM319.927 82.2246V82.127C319.927 82.1139 320.051 81.8926 320.298 81.4629C320.552 81.0332 320.679 80.6882 320.679 80.4277C320.679 80.3691 320.588 80.1445 320.405 79.7539C320.23 79.3568 320.142 79.002 320.142 78.6895C320.142 78.377 320.239 78.1328 320.435 77.957C320.637 77.7812 320.904 77.6934 321.236 77.6934H321.509C321.808 77.6934 322.04 77.7747 322.202 77.9375C322.365 78.1003 322.446 78.3151 322.446 78.582C322.46 78.6732 322.466 78.7415 322.466 78.7871V79.0605L322.456 79.2656L322.437 79.5391C322.437 80.151 322.183 80.8086 321.675 81.5117C321.167 82.2083 320.741 82.5566 320.396 82.5566H320.279C320.044 82.5566 319.927 82.446 319.927 82.2246ZM324.549 86.5508C324.152 86.1471 323.953 85.5807 323.953 84.8516C323.953 84.1224 324.279 83.4974 324.93 82.9766C325.581 82.4492 326.388 82.1855 327.352 82.1855H327.605C328.458 82.1855 329.135 82.306 329.637 82.5469C330.145 82.7878 330.398 83.1491 330.398 83.6309C330.398 84.1061 330.187 84.3438 329.764 84.3438C329.653 84.3438 329.34 84.2135 328.826 83.9531C328.312 83.6862 327.827 83.5527 327.371 83.5527C326.915 83.5527 326.548 83.6569 326.268 83.8652C325.994 84.0671 325.857 84.347 325.857 84.7051C325.857 85.0632 326.049 85.3757 326.434 85.6426C326.655 85.7988 327.176 86.0462 327.996 86.3848C328.823 86.7233 329.412 87.0488 329.764 87.3613C330.33 87.8626 330.613 88.5039 330.613 89.2852C330.613 90.0664 330.281 90.737 329.617 91.2969C328.953 91.8503 328.09 92.127 327.029 92.127H326.775C325.708 92.127 324.907 91.974 324.373 91.668C323.839 91.3555 323.572 90.9518 323.572 90.457C323.572 89.9557 323.781 89.7051 324.197 89.7051C324.334 89.7051 324.689 89.8809 325.262 90.2324C325.841 90.584 326.408 90.7598 326.961 90.7598C327.521 90.7598 327.941 90.6426 328.221 90.4082C328.501 90.1673 328.641 89.8678 328.641 89.5098C328.641 89.1452 328.465 88.8262 328.113 88.5527C327.924 88.403 327.384 88.1328 326.492 87.7422C325.6 87.3451 324.952 86.9479 324.549 86.5508ZM345.062 81.7266V81.5508C345.062 80.8932 344.834 80.3952 344.379 80.0566C343.929 79.7181 343.334 79.5488 342.591 79.5488H342.035C341.533 79.5488 341.198 79.6074 341.029 79.7246C340.86 79.8418 340.775 80.0729 340.775 80.418C340.749 80.6263 340.736 80.7565 340.736 80.8086L340.638 82.6152V82.7812L340.609 83.2695V83.4355L340.599 83.5918C340.599 83.8457 340.655 84.0117 340.765 84.0898C340.882 84.168 341.107 84.207 341.439 84.207H341.839L341.918 84.1973H341.996L342.24 84.1875L342.728 84.1484C343.405 84.1484 343.962 83.9076 344.398 83.4258C344.841 82.944 345.062 82.3776 345.062 81.7266ZM340.336 89.9102C340.336 90.1836 340.423 90.3691 340.599 90.4668C340.782 90.5645 341.221 90.6133 341.918 90.6133H342.103C343.223 90.6133 344.04 90.4115 344.554 90.0078C345.199 89.5 345.521 88.8132 345.521 87.9473V87.752C345.521 87.0228 345.267 86.4466 344.759 86.0234C344.258 85.5938 343.545 85.3789 342.621 85.3789H341.791C341.595 85.3984 341.39 85.4082 341.175 85.4082C340.72 85.4082 340.492 85.7435 340.492 86.4141C340.466 86.6615 340.453 86.8145 340.453 86.873L340.375 88.3574V88.543L340.336 89.5488V89.9102ZM347.064 81.4727C347.064 82.5078 346.677 83.3704 345.902 84.0605C345.524 84.3926 345.336 84.5716 345.336 84.5977C345.336 84.6237 345.56 84.7865 346.009 85.0859C347.071 85.7826 347.601 86.7819 347.601 88.084C347.601 89.3796 347.038 90.3952 345.912 91.1309C345.013 91.7233 343.584 92.0195 341.625 92.0195H341.39L341.156 92.0098H340.921C339.463 92.0098 338.568 91.974 338.236 91.9023C337.904 91.8242 337.738 91.694 337.738 91.5117V91.3555C337.738 91.1992 337.836 90.9258 338.031 90.5352C338.122 90.2747 338.19 89.9297 338.236 89.5C338.418 87.7878 338.509 85.8314 338.509 83.6309L338.558 82.2441L338.578 81.7949L338.587 81.1113C338.587 80.4993 338.542 80.0306 338.451 79.7051L338.353 79.3828C338.308 79.2266 338.285 79.0801 338.285 78.9434C338.285 78.7025 338.461 78.5365 338.812 78.4453C339.164 78.3542 339.844 78.3086 340.853 78.3086L341.078 78.2988C341.234 78.2923 341.39 78.2891 341.546 78.2891L342.494 78.2695C345.541 78.2695 347.064 79.3372 347.064 81.4727ZM349.586 83.2207C349.586 82.8105 349.931 82.6055 350.621 82.6055H350.846C351.276 82.6055 351.566 82.778 351.715 83.123C351.865 83.4681 351.94 84.1126 351.94 85.0566L351.823 88.3184C351.823 89.8353 352.366 90.5938 353.454 90.5938C353.851 90.5938 354.232 90.4538 354.596 90.1738C354.961 89.8939 355.231 89.5586 355.407 89.168C355.791 88.3086 355.983 86.7689 355.983 84.5488L355.963 84.1191V83.7383C355.963 83.3932 356.041 83.1426 356.198 82.9863C356.354 82.8301 356.627 82.752 357.018 82.752C357.409 82.752 357.666 82.8464 357.789 83.0352C357.913 83.224 357.975 83.5299 357.975 83.9531L357.955 84.4707L357.916 86.7754C357.916 87.1465 357.939 87.7161 357.985 88.4844C358.03 89.2526 358.079 89.8158 358.131 90.1738C358.183 90.5254 358.209 90.7337 358.209 90.7988C358.209 91.3783 357.783 91.668 356.93 91.668C356.637 91.668 356.344 91.5605 356.051 91.3457C355.765 91.1243 355.56 91.0137 355.436 91.0137C355.319 91.0137 355.117 91.0853 354.83 91.2285C354.017 91.6387 353.323 91.8438 352.75 91.8438H352.506C351.575 91.8438 350.892 91.5573 350.455 90.9844C350.019 90.4115 349.801 89.3796 349.801 87.8887L349.899 84.9297C349.899 84.5586 349.847 84.2038 349.743 83.8652C349.638 83.5267 349.586 83.3118 349.586 83.2207ZM361.064 86.5508C360.667 86.1471 360.468 85.5807 360.468 84.8516C360.468 84.1224 360.793 83.4974 361.445 82.9766C362.096 82.4492 362.903 82.1855 363.866 82.1855H364.12C364.973 82.1855 365.65 82.306 366.152 82.5469C366.659 82.7878 366.913 83.1491 366.913 83.6309C366.913 84.1061 366.702 84.3438 366.279 84.3438C366.168 84.3438 365.855 84.2135 365.341 83.9531C364.827 83.6862 364.342 83.5527 363.886 83.5527C363.43 83.5527 363.062 83.6569 362.782 83.8652C362.509 84.0671 362.372 84.347 362.372 84.7051C362.372 85.0632 362.564 85.3757 362.948 85.6426C363.17 85.7988 363.691 86.0462 364.511 86.3848C365.338 86.7233 365.927 87.0488 366.279 87.3613C366.845 87.8626 367.128 88.5039 367.128 89.2852C367.128 90.0664 366.796 90.737 366.132 91.2969C365.468 91.8503 364.605 92.127 363.544 92.127H363.29C362.223 92.127 361.422 91.974 360.888 91.668C360.354 91.3555 360.087 90.9518 360.087 90.457C360.087 89.9557 360.295 89.7051 360.712 89.7051C360.849 89.7051 361.204 89.8809 361.777 90.2324C362.356 90.584 362.922 90.7598 363.476 90.7598C364.036 90.7598 364.456 90.6426 364.736 90.4082C365.015 90.1673 365.155 89.8678 365.155 89.5098C365.155 89.1452 364.98 88.8262 364.628 88.5527C364.439 88.403 363.899 88.1328 363.007 87.7422C362.115 87.3451 361.467 86.9479 361.064 86.5508ZM372.102 79.3047V79.4219C372.102 79.7539 372.004 80.0371 371.809 80.2715C371.62 80.4993 371.327 80.6133 370.93 80.6133H370.773L370.471 80.5742C370.295 80.5742 370.126 80.4928 369.963 80.3301C369.8 80.1673 369.719 79.9232 369.719 79.5977V79.4805L369.768 79.1289C369.768 78.9922 369.849 78.8229 370.012 78.6211C370.181 78.4193 370.396 78.3184 370.656 78.3184L370.881 78.2891H371.076L371.35 78.3281C371.519 78.3281 371.685 78.4128 371.848 78.582C372.017 78.7448 372.102 78.9857 372.102 79.3047ZM371.643 83.4258L371.535 86.0527L371.516 86.3164L371.486 87.1172V87.498C371.486 88.4355 371.512 89.0508 371.564 89.3438C371.623 89.6367 371.73 89.9232 371.887 90.2031C372.043 90.4766 372.121 90.6751 372.121 90.7988V90.8867C372.121 91.2057 371.958 91.4596 371.633 91.6484C371.307 91.8372 370.865 91.9316 370.305 91.9316H370.061C369.735 91.9316 369.488 91.86 369.318 91.7168C369.149 91.5671 369.064 91.4076 369.064 91.2383V91.0234C369.064 90.9388 369.139 90.6393 369.289 90.125C369.439 89.6042 369.514 88.8978 369.514 88.0059C369.533 87.752 369.543 87.5762 369.543 87.4785L369.572 86.9414L369.592 86.6777C369.624 86.222 369.641 85.8672 369.641 85.6133L369.65 85.2227C369.65 84.7344 369.569 84.3014 369.406 83.9238C369.25 83.5462 369.172 83.3118 369.172 83.2207C369.172 82.752 369.615 82.5176 370.5 82.5176H370.852C371.184 82.5176 371.398 82.6055 371.496 82.7812C371.594 82.9505 371.643 83.1654 371.643 83.4258ZM383.188 90.8281C383.188 91.3099 382.768 91.5508 381.929 91.5508C381.453 91.5508 381.134 91.4368 380.971 91.209C380.893 91.0983 380.854 90.8379 380.854 90.4277L380.825 89.8027C380.779 89.1191 380.757 88.4323 380.757 87.7422C380.757 86.2513 380.626 85.252 380.366 84.7441C380.112 84.2298 379.682 83.9727 379.077 83.9727C378.673 83.9727 378.299 84.0931 377.954 84.334C377.615 84.5749 377.355 84.9102 377.173 85.3398C376.795 86.2188 376.606 87.8431 376.606 90.2129C376.606 90.7533 376.502 91.1341 376.294 91.3555C376.092 91.5768 375.832 91.6875 375.512 91.6875H375.317C374.588 91.6875 374.223 91.3978 374.223 90.8184V90.584C374.223 90.5124 374.262 90.3561 374.341 90.1152L374.497 89.666C374.653 89.1387 374.731 88.0091 374.731 86.2773L374.78 83.377C374.78 83.0059 374.982 82.8203 375.386 82.8203C375.789 82.8203 376.186 82.9538 376.577 83.2207C376.974 83.4876 377.225 83.6211 377.329 83.6211C377.44 83.6211 377.632 83.5462 377.905 83.3965C378.823 82.8952 379.559 82.6445 380.112 82.6445H380.366C381.362 82.6445 382.062 83.0938 382.466 83.9922C382.661 84.4154 382.759 85.3268 382.759 86.7266V86.7949C382.759 86.9121 382.755 87.0293 382.749 87.1465C382.749 87.4655 382.749 87.6315 382.749 87.6445C382.749 87.7682 382.749 87.8887 382.749 88.0059C382.749 88.097 382.749 88.1849 382.749 88.2695C382.749 88.7708 382.765 89.1126 382.798 89.2949C382.843 89.5423 382.918 89.7995 383.022 90.0664C383.133 90.3594 383.188 90.6133 383.188 90.8281ZM386.941 86.0625V86.2188C386.941 86.4141 387.12 86.5117 387.478 86.5117H387.712L387.771 86.502L388.25 86.4629C388.751 86.3913 389.076 86.3555 389.226 86.3555C389.936 86.3555 390.47 86.222 390.828 85.9551C390.997 85.8249 391.082 85.5938 391.082 85.2617V85.1543C391.082 84.666 390.919 84.2786 390.593 83.9922C390.274 83.7057 389.89 83.5625 389.441 83.5625H389.373L389.314 83.5723C388.683 83.5723 388.129 83.8392 387.654 84.373C387.179 84.9069 386.941 85.4701 386.941 86.0625ZM389.07 92.127H388.855C387.612 92.127 386.622 91.7331 385.886 90.9453C385.151 90.151 384.783 89.0931 384.783 87.7715V87.3418C384.783 86.7103 384.907 86.069 385.154 85.418C385.655 84.1159 386.472 83.2174 387.605 82.7227C388.204 82.4557 388.813 82.3223 389.431 82.3223H389.851C390.704 82.3223 391.423 82.6087 392.009 83.1816C392.602 83.748 392.898 84.4805 392.898 85.3789V85.5742C392.898 86.2122 392.644 86.6647 392.136 86.9316C391.785 87.1204 390.964 87.3092 389.675 87.498C388.386 87.6868 387.683 87.8008 387.566 87.8398C387.175 87.9766 386.98 88.237 386.98 88.6211C386.98 89.1549 387.208 89.6107 387.664 89.9883C388.119 90.3659 388.731 90.5547 389.5 90.5547C389.858 90.5547 390.346 90.457 390.964 90.2617C391.583 90.0664 391.941 89.9688 392.039 89.9688C392.371 89.9688 392.537 90.112 392.537 90.3984C392.537 90.7826 392.162 91.1667 391.414 91.5508C390.665 91.9349 389.884 92.127 389.07 92.127ZM395.411 86.5508C395.013 86.1471 394.815 85.5807 394.815 84.8516C394.815 84.1224 395.14 83.4974 395.791 82.9766C396.442 82.4492 397.25 82.1855 398.213 82.1855H398.467C399.32 82.1855 399.997 82.306 400.498 82.5469C401.006 82.7878 401.26 83.1491 401.26 83.6309C401.26 84.1061 401.049 84.3438 400.625 84.3438C400.515 84.3438 400.202 84.2135 399.688 83.9531C399.174 83.6862 398.689 83.5527 398.233 83.5527C397.777 83.5527 397.409 83.6569 397.129 83.8652C396.856 84.0671 396.719 84.347 396.719 84.7051C396.719 85.0632 396.911 85.3757 397.295 85.6426C397.517 85.7988 398.038 86.0462 398.858 86.3848C399.685 86.7233 400.274 87.0488 400.625 87.3613C401.192 87.8626 401.475 88.5039 401.475 89.2852C401.475 90.0664 401.143 90.737 400.479 91.2969C399.815 91.8503 398.952 92.127 397.891 92.127H397.637C396.569 92.127 395.769 91.974 395.235 91.668C394.701 91.3555 394.434 90.9518 394.434 90.457C394.434 89.9557 394.642 89.7051 395.059 89.7051C395.196 89.7051 395.551 89.8809 396.123 90.2324C396.703 90.584 397.269 90.7598 397.823 90.7598C398.383 90.7598 398.802 90.6426 399.082 90.4082C399.362 90.1673 399.502 89.8678 399.502 89.5098C399.502 89.1452 399.327 88.8262 398.975 88.5527C398.786 88.403 398.246 88.1328 397.354 87.7422C396.462 87.3451 395.814 86.9479 395.411 86.5508ZM403.958 86.5508C403.561 86.1471 403.363 85.5807 403.363 84.8516C403.363 84.1224 403.688 83.4974 404.339 82.9766C404.99 82.4492 405.797 82.1855 406.761 82.1855H407.015C407.868 82.1855 408.545 82.306 409.046 82.5469C409.554 82.7878 409.808 83.1491 409.808 83.6309C409.808 84.1061 409.596 84.3438 409.173 84.3438C409.062 84.3438 408.75 84.2135 408.236 83.9531C407.721 83.6862 407.236 83.5527 406.78 83.5527C406.325 83.5527 405.957 83.6569 405.677 83.8652C405.404 84.0671 405.267 84.347 405.267 84.7051C405.267 85.0632 405.459 85.3757 405.843 85.6426C406.064 85.7988 406.585 86.0462 407.405 86.3848C408.232 86.7233 408.821 87.0488 409.173 87.3613C409.739 87.8626 410.023 88.5039 410.023 89.2852C410.023 90.0664 409.691 90.737 409.027 91.2969C408.363 91.8503 407.5 92.127 406.439 92.127H406.185C405.117 92.127 404.316 91.974 403.782 91.668C403.249 91.3555 402.982 90.9518 402.982 90.457C402.982 89.9557 403.19 89.7051 403.607 89.7051C403.743 89.7051 404.098 89.8809 404.671 90.2324C405.251 90.584 405.817 90.7598 406.37 90.7598C406.93 90.7598 407.35 90.6426 407.63 90.4082C407.91 90.1673 408.05 89.8678 408.05 89.5098C408.05 89.1452 407.874 88.8262 407.523 88.5527C407.334 88.403 406.793 88.1328 405.902 87.7422C405.01 87.3451 404.362 86.9479 403.958 86.5508ZM413.6 86.0625V86.2188C413.6 86.4141 413.779 86.5117 414.137 86.5117H414.371L414.43 86.502L414.908 86.4629C415.41 86.3913 415.735 86.3555 415.885 86.3555C416.594 86.3555 417.128 86.222 417.486 85.9551C417.656 85.8249 417.74 85.5938 417.74 85.2617V85.1543C417.74 84.666 417.577 84.2786 417.252 83.9922C416.933 83.7057 416.549 83.5625 416.1 83.5625H416.031L415.973 83.5723C415.341 83.5723 414.788 83.8392 414.312 84.373C413.837 84.9069 413.6 85.4701 413.6 86.0625ZM415.729 92.127H415.514C414.27 92.127 413.281 91.7331 412.545 90.9453C411.809 90.151 411.441 89.0931 411.441 87.7715V87.3418C411.441 86.7103 411.565 86.069 411.812 85.418C412.314 84.1159 413.131 83.2174 414.264 82.7227C414.863 82.4557 415.471 82.3223 416.09 82.3223H416.51C417.363 82.3223 418.082 82.6087 418.668 83.1816C419.26 83.748 419.557 84.4805 419.557 85.3789V85.5742C419.557 86.2122 419.303 86.6647 418.795 86.9316C418.443 87.1204 417.623 87.3092 416.334 87.498C415.045 87.6868 414.342 87.8008 414.225 87.8398C413.834 87.9766 413.639 88.237 413.639 88.6211C413.639 89.1549 413.867 89.6107 414.322 89.9883C414.778 90.3659 415.39 90.5547 416.158 90.5547C416.516 90.5547 417.005 90.457 417.623 90.2617C418.242 90.0664 418.6 89.9688 418.697 89.9688C419.029 89.9688 419.195 90.112 419.195 90.3984C419.195 90.7826 418.821 91.1667 418.072 91.5508C417.324 91.9349 416.542 92.127 415.729 92.127ZM422.069 86.5508C421.672 86.1471 421.473 85.5807 421.473 84.8516C421.473 84.1224 421.799 83.4974 422.45 82.9766C423.101 82.4492 423.908 82.1855 424.872 82.1855H425.126C425.979 82.1855 426.656 82.306 427.157 82.5469C427.665 82.7878 427.919 83.1491 427.919 83.6309C427.919 84.1061 427.707 84.3438 427.284 84.3438C427.173 84.3438 426.861 84.2135 426.346 83.9531C425.832 83.6862 425.347 83.5527 424.891 83.5527C424.436 83.5527 424.068 83.6569 423.788 83.8652C423.514 84.0671 423.378 84.347 423.378 84.7051C423.378 85.0632 423.57 85.3757 423.954 85.6426C424.175 85.7988 424.696 86.0462 425.516 86.3848C426.343 86.7233 426.932 87.0488 427.284 87.3613C427.85 87.8626 428.134 88.5039 428.134 89.2852C428.134 90.0664 427.802 90.737 427.137 91.2969C426.473 91.8503 425.611 92.127 424.55 92.127H424.296C423.228 92.127 422.427 91.974 421.893 91.668C421.36 91.3555 421.093 90.9518 421.093 90.457C421.093 89.9557 421.301 89.7051 421.718 89.7051C421.854 89.7051 422.209 89.8809 422.782 90.2324C423.361 90.584 423.928 90.7598 424.481 90.7598C425.041 90.7598 425.461 90.6426 425.741 90.4082C426.021 90.1673 426.161 89.8678 426.161 89.5098C426.161 89.1452 425.985 88.8262 425.634 88.5527C425.445 88.403 424.904 88.1328 424.012 87.7422C423.121 87.3451 422.473 86.9479 422.069 86.5508ZM440.219 90.9551C440.219 91.2155 440.06 91.4499 439.741 91.6582C439.428 91.86 439.002 91.9609 438.461 91.9609C437.452 91.9609 436.743 91.5866 436.332 90.8379C436.079 90.3691 435.952 89.2721 435.952 87.5469C435.952 85.8216 435.922 84.819 435.864 84.5391C435.805 84.2591 435.642 83.9857 435.375 83.7188C435.108 83.4518 434.975 83.2467 434.975 83.1035C434.975 83.0514 435.291 82.7096 435.922 82.0781C436.059 81.9414 436.196 81.6387 436.332 81.1699C436.476 80.7012 436.577 80.3919 436.635 80.2422C436.83 79.7734 437.088 79.5391 437.407 79.5391H437.563C437.843 79.5391 438.041 79.6465 438.159 79.8613C438.204 79.946 438.273 80.252 438.364 80.7793C438.461 81.3001 438.572 81.6354 438.696 81.7852C438.819 81.9349 439.129 82.1009 439.623 82.2832C440.125 82.459 440.375 82.6478 440.375 82.8496V82.957C440.375 83.2174 440.089 83.4388 439.516 83.6211C438.95 83.7969 438.585 84.0801 438.422 84.4707C438.103 85.2585 437.944 86.541 437.944 88.3184C437.944 89.1517 438.087 89.7181 438.373 90.0176C438.549 90.1999 438.901 90.3268 439.428 90.3984C439.955 90.4701 440.219 90.6556 440.219 90.9551ZM443.825 87.8789C443.825 88.7318 444.021 89.4414 444.411 90.0078C444.802 90.5742 445.28 90.8574 445.847 90.8574H446.14C446.81 90.8574 447.377 90.5189 447.839 89.8418C448.308 89.1647 448.542 88.263 448.542 87.1367V86.4922C448.542 85.6198 448.35 84.9069 447.966 84.3535C447.588 83.7936 447.1 83.5137 446.501 83.5137H446.306C445.609 83.5137 445.023 83.8587 444.548 84.5488C444.079 85.2389 443.845 86.0625 443.845 87.0195L443.825 87.2441V87.8789ZM446.032 92.1855H445.72C444.581 92.1855 443.653 91.7884 442.937 90.9941C442.221 90.1999 441.863 89.0736 441.863 87.6152L441.872 87.4492C441.872 85.8477 442.295 84.5846 443.142 83.6602C443.585 83.1719 444.089 82.8138 444.655 82.5859C445.228 82.3516 445.772 82.2344 446.286 82.2344H446.765C447.338 82.2344 447.888 82.3613 448.415 82.6152C449.926 83.3444 450.681 84.7181 450.681 86.7363V86.8926C450.674 87.5501 450.567 88.2174 450.359 88.8945C449.942 90.2292 449.141 91.1732 447.956 91.7266C447.299 92.0326 446.657 92.1855 446.032 92.1855ZM462.698 90.9551C462.698 91.2155 462.539 91.4499 462.22 91.6582C461.907 91.86 461.481 91.9609 460.94 91.9609C459.931 91.9609 459.221 91.5866 458.811 90.8379C458.557 90.3691 458.43 89.2721 458.43 87.5469C458.43 85.8216 458.401 84.819 458.343 84.5391C458.284 84.2591 458.121 83.9857 457.854 83.7188C457.587 83.4518 457.454 83.2467 457.454 83.1035C457.454 83.0514 457.77 82.7096 458.401 82.0781C458.538 81.9414 458.675 81.6387 458.811 81.1699C458.955 80.7012 459.055 80.3919 459.114 80.2422C459.309 79.7734 459.567 79.5391 459.886 79.5391H460.042C460.322 79.5391 460.52 79.6465 460.638 79.8613C460.683 79.946 460.751 80.252 460.843 80.7793C460.94 81.3001 461.051 81.6354 461.175 81.7852C461.298 81.9349 461.608 82.1009 462.102 82.2832C462.604 82.459 462.854 82.6478 462.854 82.8496V82.957C462.854 83.2174 462.568 83.4388 461.995 83.6211C461.429 83.7969 461.064 84.0801 460.901 84.4707C460.582 85.2585 460.423 86.541 460.423 88.3184C460.423 89.1517 460.566 89.7181 460.852 90.0176C461.028 90.1999 461.38 90.3268 461.907 90.3984C462.434 90.4701 462.698 90.6556 462.698 90.9551ZM465.826 91.8145C465.058 91.8145 464.673 91.541 464.673 90.9941C464.673 90.7467 464.732 90.3789 464.849 89.8906C464.973 89.4023 465.054 88.9531 465.093 88.543C465.132 88.1263 465.201 86.7852 465.298 84.5195C465.403 82.2539 465.455 80.8737 465.455 80.3789V79.2266L465.396 78.4062C465.396 78.1003 465.676 77.9473 466.236 77.9473C466.802 77.9473 467.17 78.1654 467.339 78.6016C467.424 78.8229 467.466 79.5456 467.466 80.7695C467.466 81.9935 467.489 82.6901 467.535 82.8594C467.587 83.0286 467.72 83.1133 467.935 83.1133C467.961 83.1133 468.085 83.0742 468.306 82.9961L468.521 82.918C469.218 82.6445 469.82 82.5078 470.328 82.5078C471.395 82.5078 472.154 82.9245 472.603 83.7578C472.903 84.3112 473.052 85.5156 473.052 87.3711C473.052 88.2435 473.059 88.7611 473.072 88.9238C473.085 89.0866 473.127 89.3828 473.199 89.8125C473.27 90.2357 473.306 90.4701 473.306 90.5156C473.306 90.8997 473.218 91.1862 473.043 91.375C472.873 91.5573 472.564 91.6484 472.115 91.6484C471.672 91.6484 471.382 91.5117 471.246 91.2383C471.174 91.0951 471.138 90.6816 471.138 89.998L471.109 88.2793L471.138 86.7266C471.138 84.9883 470.63 84.1191 469.615 84.1191C468.716 84.1191 468.075 84.4967 467.691 85.252C467.307 86.0072 467.115 87.4069 467.115 89.4512L467.144 90.5156C467.144 90.8802 467.03 91.1895 466.802 91.4434C466.574 91.6908 466.249 91.8145 465.826 91.8145ZM477.274 86.0625V86.2188C477.274 86.4141 477.453 86.5117 477.811 86.5117H478.045L478.104 86.502L478.582 86.4629C479.084 86.3913 479.409 86.3555 479.559 86.3555C480.269 86.3555 480.802 86.222 481.161 85.9551C481.33 85.8249 481.414 85.5938 481.414 85.2617V85.1543C481.414 84.666 481.252 84.2786 480.926 83.9922C480.607 83.7057 480.223 83.5625 479.774 83.5625H479.705L479.647 83.5723C479.015 83.5723 478.462 83.8392 477.987 84.373C477.511 84.9069 477.274 85.4701 477.274 86.0625ZM479.403 92.127H479.188C477.944 92.127 476.955 91.7331 476.219 90.9453C475.483 90.151 475.116 89.0931 475.116 87.7715V87.3418C475.116 86.7103 475.239 86.069 475.487 85.418C475.988 84.1159 476.805 83.2174 477.938 82.7227C478.537 82.4557 479.146 82.3223 479.764 82.3223H480.184C481.037 82.3223 481.756 82.6087 482.342 83.1816C482.935 83.748 483.231 84.4805 483.231 85.3789V85.5742C483.231 86.2122 482.977 86.6647 482.469 86.9316C482.118 87.1204 481.297 87.3092 480.008 87.498C478.719 87.6868 478.016 87.8008 477.899 87.8398C477.508 87.9766 477.313 88.237 477.313 88.6211C477.313 89.1549 477.541 89.6107 477.996 89.9883C478.452 90.3659 479.064 90.5547 479.832 90.5547C480.191 90.5547 480.679 90.457 481.297 90.2617C481.916 90.0664 482.274 89.9688 482.371 89.9688C482.704 89.9688 482.87 90.112 482.87 90.3984C482.87 90.7826 482.495 91.1667 481.746 91.5508C480.998 91.9349 480.217 92.127 479.403 92.127ZM498.949 79.3145C499.457 79.3145 499.841 79.6432 500.102 80.3008C500.141 80.4049 500.219 80.8281 500.336 81.5703C500.453 82.306 500.743 83.5202 501.205 85.2129C501.667 86.9056 501.964 87.752 502.094 87.752C502.263 87.752 502.729 86.6582 503.49 84.4707C503.731 83.7806 503.998 82.9082 504.291 81.8535C504.584 80.7923 504.789 80.1217 504.906 79.8418C505.186 79.1842 505.642 78.8555 506.273 78.8555C506.56 78.8555 506.703 79.1224 506.703 79.6562C506.703 79.832 506.267 81.362 505.395 84.2461C504.529 87.1302 503.962 88.8522 503.695 89.4121C503.181 90.4928 502.572 91.0332 501.869 91.0332C501.4 91.0332 500.951 90.5807 500.521 89.6758C500.183 88.9531 499.701 87.5827 499.076 85.5645L498.646 84.1582L498.5 83.8359C498.402 83.8359 498.005 84.6562 497.309 86.2969C496.618 87.9375 496.104 89.0443 495.766 89.6172C495.251 90.4831 494.776 90.916 494.34 90.916C494.066 90.916 493.793 90.7858 493.52 90.5254C493.253 90.265 493.041 89.946 492.885 89.5684C492.729 89.1842 492.312 87.5566 491.635 84.6855C490.964 81.8145 490.629 80.2617 490.629 80.0273V79.7441C490.629 79.5814 490.694 79.4154 490.824 79.2461C490.954 79.0703 491.15 78.9824 491.41 78.9824C492.087 78.9824 492.598 79.474 492.943 80.457C493.008 80.6328 493.132 81.1341 493.314 81.9609C493.497 82.7812 493.783 83.9564 494.174 85.4863C494.564 87.0163 494.838 87.7812 494.994 87.7812C495.229 87.7812 495.616 86.9349 496.156 85.2422C496.697 83.5495 497.019 82.2995 497.123 81.4922C497.234 80.6784 497.357 80.1576 497.494 79.9297C497.735 79.5195 498.22 79.3145 498.949 79.3145ZM509.401 86.0625V86.2188C509.401 86.4141 509.58 86.5117 509.938 86.5117H510.173L510.231 86.502L510.71 86.4629C511.211 86.3913 511.537 86.3555 511.686 86.3555C512.396 86.3555 512.93 86.222 513.288 85.9551C513.457 85.8249 513.542 85.5938 513.542 85.2617V85.1543C513.542 84.666 513.379 84.2786 513.054 83.9922C512.735 83.7057 512.35 83.5625 511.901 83.5625H511.833L511.774 83.5723C511.143 83.5723 510.589 83.8392 510.114 84.373C509.639 84.9069 509.401 85.4701 509.401 86.0625ZM511.53 92.127H511.315C510.072 92.127 509.082 91.7331 508.346 90.9453C507.611 90.151 507.243 89.0931 507.243 87.7715V87.3418C507.243 86.7103 507.367 86.069 507.614 85.418C508.115 84.1159 508.932 83.2174 510.065 82.7227C510.664 82.4557 511.273 82.3223 511.891 82.3223H512.311C513.164 82.3223 513.884 82.6087 514.47 83.1816C515.062 83.748 515.358 84.4805 515.358 85.3789V85.5742C515.358 86.2122 515.104 86.6647 514.596 86.9316C514.245 87.1204 513.425 87.3092 512.136 87.498C510.846 87.6868 510.143 87.8008 510.026 87.8398C509.636 87.9766 509.44 88.237 509.44 88.6211C509.44 89.1549 509.668 89.6107 510.124 89.9883C510.58 90.3659 511.192 90.5547 511.96 90.5547C512.318 90.5547 512.806 90.457 513.425 90.2617C514.043 90.0664 514.401 89.9688 514.499 89.9688C514.831 89.9688 514.997 90.112 514.997 90.3984C514.997 90.7826 514.623 91.1667 513.874 91.5508C513.125 91.9349 512.344 92.127 511.53 92.127ZM521.074 90.7598H521.367C522.076 90.7598 522.672 90.4082 523.154 89.7051C523.642 88.9954 523.886 88.0319 523.886 86.8145V86.502L523.877 86.3945L523.867 86.1895C523.86 86.1178 523.857 86.0495 523.857 85.9844C523.857 85.3529 523.681 84.7995 523.33 84.3242C522.978 83.8424 522.548 83.6016 522.041 83.6016H521.757C521.438 83.6016 521.087 83.7122 520.703 83.9336C520.325 84.1549 520.058 84.4154 519.902 84.7148C519.557 85.3659 519.384 86.3945 519.384 87.8008V88.6992C519.404 88.8945 519.414 89.0573 519.414 89.1875C519.414 89.6562 519.557 90.0371 519.843 90.3301C520.136 90.6165 520.546 90.7598 521.074 90.7598ZM519.795 82.1758C519.795 82.4232 519.834 82.6087 519.912 82.7324C519.996 82.8561 520.214 82.918 520.566 82.918C520.573 82.918 520.784 82.8691 521.201 82.7715C521.624 82.6738 522.06 82.625 522.509 82.625C523.479 82.625 524.29 83.0091 524.941 83.7773C525.592 84.5456 525.918 85.4831 525.918 86.5898V87.293C525.918 87.8398 525.81 88.4193 525.595 89.0312C525.374 89.6432 525.061 90.1738 524.658 90.623C523.831 91.5345 522.812 91.9902 521.601 91.9902H521.386C521.048 91.9902 520.612 91.9251 520.078 91.7949C519.544 91.6647 519.196 91.5996 519.033 91.5996L518.379 91.6582C517.708 91.6582 517.373 91.3229 517.373 90.6523V90.252C517.373 89.8548 517.451 88.4062 517.607 85.9062C517.77 83.4062 517.851 81.8112 517.851 81.1211C517.851 80.431 517.796 79.8581 517.685 79.4023C517.574 78.9466 517.519 78.6992 517.519 78.6602C517.519 78.1133 517.828 77.8398 518.447 77.8398H518.642C519.17 77.8398 519.505 77.9668 519.648 78.2207C519.791 78.4681 519.863 78.9303 519.863 79.6074L519.814 81.1602L519.795 81.5996V82.1758Z" fill="black"/>
<path d="M119.966 69.9315V63.5815H136.216C137.516 63.5815 138.9 63.4649 140.366 63.2315C141.866 62.9649 143.266 62.4649 144.566 61.7315C145.9 60.9982 146.983 59.9149 147.816 58.4815C148.65 57.0482 149.066 55.1482 149.066 52.7815C149.066 50.3815 148.65 48.4649 147.816 47.0315C146.983 45.5982 145.9 44.5315 144.566 43.8315C143.266 43.0982 141.866 42.6149 140.366 42.3815C138.9 42.1149 137.516 41.9815 136.216 41.9815H119.966V35.6315H137.116C139.516 35.6315 141.916 35.9482 144.316 36.5815C146.716 37.2149 148.9 38.2149 150.866 39.5815C152.866 40.9482 154.466 42.7148 155.666 44.8815C156.9 47.0482 157.516 49.6815 157.516 52.7815C157.516 55.8482 156.9 58.4815 155.666 60.6815C154.466 62.8482 152.866 64.6149 150.866 65.9815C148.9 67.3482 146.716 68.3482 144.316 68.9815C141.916 69.6149 139.516 69.9315 137.116 69.9315H119.966ZM125.566 66.2315V39.2815H133.666V66.2315H125.566Z" fill="#4A9782"/>
<path d="M93.42 51.87C102 54.15 106.29 59.13 106.29 66.81C106.29 72.33 104.22 76.59 100.08 79.59C96 82.53 90.06 84 82.26 84H5.85V74.55H24.93V31.71H5.85V22.26H80.55C87.33 22.26 92.52 23.76 96.12 26.76C99.78 29.76 101.61 33.72 101.61 38.64C101.61 41.64 100.86 44.25 99.36 46.47C97.92 48.69 95.94 50.49 93.42 51.87ZM36.9 31.71V48.81H77.76C85.74 48.81 89.73 45.9 89.73 40.08C89.73 37.2 88.77 35.1 86.85 33.78C84.99 32.4 82.71 31.71 80.01 31.71H36.9ZM81.27 74.55C90.03 74.55 94.41 71.67 94.41 65.91C94.41 60.21 90.21 57.36 81.81 57.36H36.9V74.55H81.27Z" fill="#004030"/>
<path d="M64 49H127V56H64V49Z" fill="#004030"/>
<path d="M119.966 69.9315V63.5815H136.216C137.516 63.5815 138.9 63.4649 140.366 63.2315C141.866 62.9649 143.266 62.4649 144.566 61.7315C145.9 60.9982 146.983 59.9149 147.816 58.4815C148.65 57.0482 149.066 55.1482 149.066 52.7815C149.066 50.3815 148.65 48.4649 147.816 47.0315C146.983 45.5982 145.9 44.5315 144.566 43.8315C143.266 43.0982 141.866 42.6149 140.366 42.3815C138.9 42.1149 137.516 41.9815 136.216 41.9815H119.966V35.6315H137.116C139.516 35.6315 141.916 35.9482 144.316 36.5815C146.716 37.2149 148.9 38.2149 150.866 39.5815C152.866 40.9482 154.466 42.7148 155.666 44.8815C156.9 47.0482 157.516 49.6815 157.516 52.7815C157.516 55.8482 156.9 58.4815 155.666 60.6815C154.466 62.8482 152.866 64.6149 150.866 65.9815C148.9 67.3482 146.716 68.3482 144.316 68.9815C141.916 69.6149 139.516 69.9315 137.116 69.9315H119.966ZM125.566 66.2315V39.2815H133.666V66.2315H125.566Z" fill="#004030"/>
<path d="M93.42 51.87C102 54.15 106.29 59.13 106.29 66.81C106.29 72.33 104.22 76.59 100.08 79.59C96 82.53 90.06 84 82.26 84H5.85V74.55H24.93V31.71H5.85V22.26H80.55C87.33 22.26 92.52 23.76 96.12 26.76C99.78 29.76 101.61 33.72 101.61 38.64C101.61 41.64 100.86 44.25 99.36 46.47C97.92 48.69 95.94 50.49 93.42 51.87ZM36.9 31.71V48.81H77.76C85.74 48.81 89.73 45.9 89.73 40.08C89.73 37.2 88.77 35.1 86.85 33.78C84.99 32.4 82.71 31.71 80.01 31.71H36.9ZM81.27 74.55C90.03 74.55 94.41 71.67 94.41 65.91C94.41 60.21 90.21 57.36 81.81 57.36H36.9V74.55H81.27Z" fill="#004030"/>
<path d="M64 49H127V56H64V49Z" fill="#004030"/>
</svg>
